<?xml version="1.0" encoding="UTF-8" standalone="no"?>
<!DOCTYPE svg PUBLIC "-//W3C//DTD SVG 1.1//EN" "http://www.w3.org/Graphics/SVG/1.1/DTD/svg11.dtd">
<svg xmlns="http://www.w3.org/2000/svg" version="1.1" viewBox="0.00 0.00 1041.00 1040.00">
<g stroke-width="2.00" fill="none" stroke-linecap="butt">
<path stroke="#767d82" vector-effect="non-scaling-stroke" d="
  M 365.23 194.01
  C 365.61 187.46 370.24 185.71 376.19 185.29
  C 390.78 184.29 405.36 183.21 419.98 182.59
  C 473.73 180.32 515.45 178.93 568.74 180.58
  C 604.77 181.70 632.45 182.70 665.76 185.25
  C 673.23 185.82 677.67 187.32 678.10 195.37
  Q 681.21 254.16 682.22 286.00
  Q 683.31 320.32 682.98 378.50
  Q 682.96 381.69 684.71 385.14
  Q 685.92 387.52 688.91 390.37
  Q 699.39 400.36 709.81 410.41
  Q 711.44 411.98 713.21 412.55
  A 2.29 2.28 18.8 0 0 716.05 411.16
  Q 716.62 409.62 716.64 407.50
  C 716.91 383.68 717.20 359.82 716.74 336.00
  Q 715.20 257.07 709.24 178.35
  C 708.55 169.18 708.31 161.27 699.43 156.63
  Q 696.20 154.94 689.18 154.42
  C 571.31 145.67 459.35 146.20 344.75 155.52
  Q 341.28 155.81 338.54 157.79
  Q 331.65 162.77 331.05 171.27
  Q 327.60 220.47 325.68 269.75
  C 321.90 367.08 323.54 469.35 329.71 573.79
  C 330.23 582.59 331.59 588.73 339.07 592.96
  Q 342.06 594.64 347.77 595.28
  Q 416.18 602.84 485.00 603.96
  C 488.13 604.01 492.25 603.81 493.84 600.55
  Q 494.06 600.09 493.84 599.62
  Q 492.22 596.18 490.29 594.23
  Q 481.65 585.49 473.07 576.69
  Q 469.28 572.81 466.12 571.37
  Q 461.82 569.40 457.25 569.24
  Q 409.72 567.49 372.18 564.68
  C 366.64 564.27 365.08 558.37 364.84 553.86
  C 360.84 479.21 359.36 403.71 360.33 329.75
  Q 361.19 263.55 365.23 194.01"
/>
<path stroke="#767d82" vector-effect="non-scaling-stroke" d="
  M 395.87 258.53
  C 396.29 263.87 400.52 265.46 405.25 265.31
  Q 518.25 261.79 631.25 265.22
  C 636.37 265.37 642.45 265.52 642.95 259.01
  Q 643.21 255.56 643.02 246.81
  C 642.88 240.44 641.58 235.60 634.50 235.31
  Q 521.63 230.72 405.50 235.29
  C 399.60 235.52 396.95 238.59 396.24 244.44
  Q 395.34 251.76 395.87 258.53"
/>
<path stroke="#767d82" vector-effect="non-scaling-stroke" d="
  M 643.44 312.77
  C 642.58 306.90 637.93 306.54 632.75 306.44
  Q 569.93 305.29 536.05 305.20
  C 491.45 305.07 448.77 305.64 405.12 306.36
  C 399.48 306.46 394.66 307.50 394.54 314.26
  C 394.46 319.00 393.19 330.60 396.81 333.95
  Q 398.48 335.50 401.68 335.81
  C 405.62 336.18 410.50 335.73 413.44 335.74
  C 434.25 335.76 455.06 335.50 475.84 335.50
  C 526.20 335.50 576.55 335.71 626.91 335.76
  C 632.75 335.76 643.80 338.17 644.18 329.01
  Q 644.54 320.29 643.44 312.77"
/>
<path stroke="#767d82" vector-effect="non-scaling-stroke" d="
  M 644.94 384.79
  A 7.79 7.79 0.0 0 0 637.15 377.00
  L 403.05 377.00
  A 7.79 7.79 0.0 0 0 395.26 384.79
  L 395.26 398.93
  A 7.79 7.79 0.0 0 0 403.05 406.72
  L 637.15 406.72
  A 7.79 7.79 0.0 0 0 644.94 398.93
  L 644.94 384.79"
/>
<path stroke="#767d82" vector-effect="non-scaling-stroke" d="
  M 560.51 536.75
  C 556.44 540.49 550.93 539.99 547.13 536.11
  Q 529.58 518.22 511.79 500.54
  Q 506.75 495.53 504.27 494.57
  Q 498.92 492.50 493.83 497.36
  C 487.89 503.04 479.32 513.04 471.61 520.36
  C 466.39 525.30 467.00 531.97 471.96 536.79
  C 488.49 552.86 508.68 574.26 526.18 591.95
  C 533.21 599.05 537.12 603.15 546.01 604.48
  Q 558.51 606.36 569.72 600.67
  Q 573.24 598.88 578.34 593.84
  C 583.50 588.75 588.90 582.60 593.29 578.10
  Q 608.13 562.91 622.94 547.67
  Q 641.01 529.08 659.28 510.67
  Q 659.31 510.64 670.24 499.35
  C 681.02 488.22 691.58 478.55 705.13 464.86
  C 710.85 459.08 715.61 453.37 708.42 446.59
  C 701.09 439.67 693.95 432.62 686.39 425.94
  C 678.98 419.39 670.93 425.08 664.85 430.61
  C 643.23 450.30 622.63 471.29 602.51 492.52
  C 594.97 500.48 587.48 508.56 579.83 516.42
  C 573.75 522.69 566.81 530.95 560.51 536.75"
/>
<path stroke="#767d82" vector-effect="non-scaling-stroke" d="
  M 573.35 730.51
  C 583.80 735.63 595.24 738.97 604.90 745.60
  C 611.67 750.24 615.19 758.92 611.01 766.14
  C 606.72 773.54 596.80 776.27 588.81 773.93
  C 580.95 771.62 574.64 765.36 571.14 757.89
  Q 570.03 755.51 569.07 753.68
  A 2.11 2.11 0.0 0 0 565.83 753.05
  L 542.80 772.78
  A 2.03 2.02 59.7 0 0 542.22 775.01
  C 549.27 794.53 569.14 806.73 589.25 807.81
  Q 598.97 808.33 603.00 807.94
  C 623.23 806.00 638.80 795.15 645.34 775.76
  C 657.16 740.64 639.48 722.29 610.85 707.28
  C 600.52 701.86 588.06 698.80 579.01 691.25
  C 573.24 686.43 572.59 677.75 580.20 674.18
  C 596.67 666.47 608.81 676.01 617.77 689.22
  Q 619.13 691.23 620.79 690.08
  Q 631.64 682.55 642.48 675.00
  Q 644.22 673.79 643.54 672.26
  C 637.63 658.84 626.82 645.92 612.10 641.09
  C 600.50 637.27 589.14 638.26 577.02 641.08
  C 557.76 645.57 541.89 660.50 539.87 680.52
  C 538.71 692.08 542.01 703.70 549.56 712.46
  Q 559.08 723.51 573.35 730.51"
/>
<path stroke="#767d82" vector-effect="non-scaling-stroke" d="
  M 295.79 672.00
  L 330.81 672.00
  A 2.06 2.06 0.0 0 0 332.87 669.94
  L 332.89 642.83
  A 2.08 2.08 0.0 0 0 330.81 640.75
  L 227.00 640.75
  Q 224.25 640.75 224.25 643.50
  L 224.25 669.50
  Q 224.25 671.99 226.75 672.00
  L 261.24 672.01
  A 0.74 0.73 -0.0 0 1 261.98 672.74
  L 261.98 803.49
  A 2.01 2.01 0.0 0 0 263.99 805.50
  L 292.73 805.50
  A 2.49 2.49 0.0 0 0 295.22 803.01
  L 295.22 672.57
  A 0.57 0.57 0.0 0 1 295.79 672.00"
/>
<path stroke="#767d82" vector-effect="non-scaling-stroke" d="
  M 417.27 769.26
  L 452.70 769.25
  A 0.70 0.69 -7.7 0 1 453.37 769.76
  L 462.98 804.09
  A 1.94 1.93 82.0 0 0 464.84 805.50
  L 493.39 805.50
  A 2.13 2.12 82.5 0 0 495.44 802.82
  L 452.22 642.26
  A 2.03 2.03 0.0 0 0 450.26 640.75
  L 419.76 640.75
  A 2.06 2.05 -82.4 0 0 417.78 642.27
  Q 396.29 722.00 374.67 801.98
  Q 374.29 803.36 374.65 804.13
  A 2.38 2.29 77.0 0 0 376.75 805.50
  L 405.41 805.50
  Q 406.86 805.50 407.25 804.10
  L 416.62 769.76
  Q 416.75 769.26 417.27 769.26"
/>
<path stroke="#767d82" vector-effect="non-scaling-stroke" d="
  M 737.90 692.94
  L 737.92 642.72
  A 1.96 1.96 0.0 0 0 735.96 640.76
  L 707.63 640.75
  Q 705.25 640.75 705.25 643.12
  L 705.25 803.75
  A 1.75 1.74 -0.0 0 0 707.00 805.49
  L 735.43 805.50
  Q 737.86 805.50 737.86 803.07
  L 737.92 748.23
  A 3.98 3.97 -26.9 0 1 738.69 745.88
  L 750.14 730.21
  A 0.44 0.44 0.0 0 1 750.91 730.32
  L 776.73 804.35
  Q 777.13 805.50 778.34 805.50
  L 812.79 805.49
  A 1.59 1.59 0.0 0 0 814.27 803.31
  L 772.79 698.97
  Q 772.60 698.51 772.89 698.10
  L 811.80 644.28
  A 2.23 2.22 -72.1 0 0 810.00 640.75
  L 778.47 640.75
  A 1.23 1.23 0.0 0 0 777.48 641.25
  L 738.96 693.29
  Q 737.90 694.72 737.90 692.94"
/>
<path stroke="#767d82" vector-effect="non-scaling-stroke" d="
  M 503.39 864.69
  C 502.96 869.05 502.59 872.85 497.75 874.02
  C 491.03 875.66 486.30 873.08 486.27 865.75
  Q 486.23 856.37 486.36 847.00
  C 486.41 843.57 486.90 839.88 489.74 838.66
  Q 493.41 837.09 498.04 837.98
  C 502.51 838.83 502.86 842.19 503.58 846.41
  A 0.70 0.70 0.0 0 0 504.27 846.99
  L 514.47 847.00
  Q 515.10 847.00 515.15 846.38
  C 516.60 829.02 504.18 823.74 489.04 826.09
  Q 474.65 828.34 474.38 843.00
  Q 474.13 856.50 474.35 869.99
  Q 474.53 881.53 484.68 885.10
  C 488.48 886.43 493.07 886.03 497.30 886.01
  Q 503.32 885.98 506.49 884.50
  C 517.47 879.37 515.47 865.77 515.16 853.43
  Q 515.15 853.00 514.72 853.00
  L 493.75 853.00
  Q 493.25 853.00 493.25 853.50
  L 493.24 863.59
  A 0.60 0.60 0.0 0 0 493.84 864.19
  L 503.01 864.27
  Q 503.43 864.28 503.39 864.69"
/>
<path stroke="#767d82" vector-effect="non-scaling-stroke" d="
  M 235.70 854.30
  Q 235.70 851.41 236.46 854.20
  L 244.73 884.53
  A 1.62 1.61 -7.2 0 0 246.26 885.71
  L 252.50 885.78
  A 1.07 1.06 8.6 0 0 253.54 885.02
  L 262.37 854.83
  Q 263.25 851.81 263.25 854.95
  L 263.24 884.84
  A 0.89 0.89 0.0 0 0 264.13 885.73
  L 273.58 885.75
  A 1.17 1.17 0.0 0 0 274.75 884.58
  L 274.74 827.78
  A 1.29 1.29 0.0 0 0 273.45 826.49
  L 262.51 826.51
  Q 261.18 826.52 260.76 827.78
  L 249.42 862.32
  A 0.32 0.32 0.0 0 1 248.81 862.31
  L 238.23 827.03
  Q 238.07 826.48 237.50 826.49
  L 224.98 826.54
  A 0.73 0.73 0.0 0 0 224.25 827.27
  L 224.25 884.74
  Q 224.25 885.74 225.24 885.74
  L 234.50 885.76
  A 1.26 1.25 90.0 0 0 235.75 884.50
  L 235.70 854.30"
/>
<path stroke="#767d82" vector-effect="non-scaling-stroke" d="
  M 321.81 872.75
  A 0.75 0.75 0.0 0 1 322.54 873.31
  L 325.69 885.17
  A 0.75 0.75 0.0 0 0 326.42 885.73
  L 336.71 885.76
  A 0.75 0.75 0.0 0 0 337.44 884.81
  L 321.92 827.07
  A 0.75 0.75 0.0 0 0 321.20 826.52
  L 310.22 826.50
  A 0.75 0.75 0.0 0 0 309.49 827.06
  L 293.93 884.75
  A 0.75 0.75 0.0 0 0 294.65 885.70
  L 305.02 885.78
  A 0.75 0.75 0.0 0 0 305.75 885.22
  L 308.93 873.32
  A 0.75 0.75 0.0 0 1 309.66 872.76
  L 321.81 872.75"
/>
<path stroke="#767d82" vector-effect="non-scaling-stroke" d="
  M 368.87 856.64
  L 381.65 885.29
  Q 381.85 885.75 382.36 885.75
  L 392.26 885.74
  Q 393.25 885.73 393.25 884.74
  L 393.25 827.00
  Q 393.25 826.49 392.75 826.49
  L 382.00 826.51
  Q 381.26 826.51 381.26 827.25
  L 381.23 854.28
  Q 381.23 855.82 380.61 854.41
  L 368.94 827.53
  A 1.73 1.72 78.3 0 0 367.36 826.49
  L 357.65 826.53
  A 0.92 0.92 0.0 0 0 356.73 827.45
  L 356.73 884.98
  A 0.75 0.75 0.0 0 0 357.48 885.73
  L 367.75 885.76
  A 0.77 0.76 0.0 0 0 368.52 885.00
  L 368.44 856.73
  Q 368.44 855.69 368.87 856.64"
/>
<path stroke="#767d82" vector-effect="non-scaling-stroke" d="
  M 440.23 872.75
  A 0.88 0.88 0.0 0 1 441.08 873.40
  L 444.33 885.10
  A 0.88 0.88 0.0 0 0 445.18 885.75
  L 455.14 885.73
  A 0.88 0.88 0.0 0 0 455.99 884.62
  L 440.52 827.13
  A 0.88 0.88 0.0 0 0 439.66 826.48
  L 428.88 826.53
  A 0.88 0.88 0.0 0 0 428.04 827.18
  L 412.55 884.62
  A 0.88 0.88 0.0 0 0 413.40 885.73
  L 423.51 885.76
  A 0.88 0.88 0.0 0 0 424.36 885.10
  L 427.48 873.41
  A 0.88 0.88 0.0 0 1 428.33 872.76
  L 440.23 872.75"
/>
<path stroke="#767d82" vector-effect="non-scaling-stroke" d="
  M 549.81 850.00
  A 0.57 0.57 0.0 0 1 549.24 849.43
  L 549.25 838.33
  A 0.57 0.57 0.0 0 1 549.82 837.76
  L 568.90 837.74
  A 0.57 0.57 0.0 0 0 569.47 837.17
  L 569.49 827.08
  A 0.57 0.57 0.0 0 0 568.92 826.51
  L 537.82 826.48
  A 0.57 0.57 0.0 0 0 537.25 827.05
  L 537.23 885.19
  A 0.57 0.57 0.0 0 0 537.80 885.76
  L 568.92 885.75
  A 0.57 0.57 0.0 0 0 569.49 885.18
  L 569.49 875.07
  A 0.57 0.57 0.0 0 0 568.92 874.50
  L 549.82 874.50
  A 0.57 0.57 0.0 0 1 549.25 873.93
  L 549.26 861.82
  A 0.57 0.57 0.0 0 1 549.83 861.25
  L 564.45 861.25
  A 0.57 0.57 0.0 0 0 565.02 860.68
  L 565.02 850.59
  A 0.57 0.57 0.0 0 0 564.45 850.02
  L 549.81 850.00"
/>
<path stroke="#767d82" vector-effect="non-scaling-stroke" d="
  M 630.48 853.31
  L 630.50 885.35
  A 0.39 0.39 0.0 0 0 630.89 885.74
  L 641.13 885.75
  Q 641.75 885.75 641.75 885.12
  L 641.75 827.50
  A 1.01 1.00 89.7 0 0 640.75 826.50
  L 629.72 826.50
  A 2.00 2.00 0.0 0 0 627.82 827.88
  L 616.54 862.48
  Q 616.23 863.43 615.94 862.47
  L 605.39 827.13
  A 0.89 0.89 0.0 0 0 604.54 826.50
  L 592.00 826.51
  A 0.74 0.74 0.0 0 0 591.26 827.25
  L 591.25 884.75
  A 1.00 1.00 0.0 0 0 592.25 885.75
  L 602.02 885.74
  A 0.76 0.76 0.0 0 0 602.78 884.98
  L 602.64 852.75
  Q 602.64 852.50 602.68 852.48
  Q 602.78 852.41 602.95 852.48
  Q 603.05 852.51 603.08 852.62
  L 611.99 885.09
  A 0.86 0.85 -7.2 0 0 612.80 885.71
  L 619.45 885.77
  A 1.23 1.22 8.4 0 0 620.64 884.89
  L 630.00 853.25
  Q 630.48 851.64 630.48 853.31"
/>
<path stroke="#767d82" vector-effect="non-scaling-stroke" d="
  M 677.25 861.88
  A 0.64 0.64 0.0 0 1 677.89 861.24
  L 692.31 861.25
  A 0.64 0.64 0.0 0 0 692.95 860.61
  L 693.03 850.65
  A 0.64 0.64 0.0 0 0 692.39 850.01
  L 677.88 850.00
  A 0.64 0.64 0.0 0 1 677.24 849.36
  L 677.25 838.40
  A 0.64 0.64 0.0 0 1 677.89 837.76
  L 696.84 837.75
  A 0.64 0.64 0.0 0 0 697.48 837.11
  L 697.50 827.14
  A 0.64 0.64 0.0 0 0 696.86 826.50
  L 665.88 826.50
  A 0.64 0.64 0.0 0 0 665.24 827.14
  L 665.24 885.11
  A 0.64 0.64 0.0 0 0 665.88 885.75
  L 696.85 885.75
  A 0.64 0.64 0.0 0 0 697.49 885.11
  L 697.49 875.14
  A 0.64 0.64 0.0 0 0 696.85 874.50
  L 677.90 874.49
  A 0.64 0.64 0.0 0 1 677.26 873.85
  L 677.25 861.88"
/>
<path stroke="#767d82" vector-effect="non-scaling-stroke" d="
  M 731.83 857.10
  C 732.90 859.01 733.54 861.52 734.39 863.34
  Q 738.37 871.84 741.99 880.49
  Q 743.04 883.01 744.49 885.32
  A 0.92 0.92 0.0 0 0 745.27 885.75
  L 755.25 885.74
  Q 755.75 885.74 755.75 885.25
  L 755.75 827.01
  A 0.50 0.49 90.0 0 0 755.26 826.51
  L 744.49 826.50
  Q 743.98 826.50 743.99 827.01
  L 744.04 855.06
  Q 744.04 856.24 743.57 855.16
  L 731.33 827.01
  A 0.86 0.85 -11.4 0 0 730.54 826.49
  L 720.00 826.51
  A 0.75 0.74 0.0 0 0 719.25 827.25
  L 719.25 885.00
  A 0.75 0.75 0.0 0 0 720.01 885.75
  L 730.33 885.72
  A 0.92 0.92 0.0 0 0 731.25 884.79
  L 731.25 857.25
  Q 731.25 856.05 731.83 857.10"
/>
<path stroke="#767d82" vector-effect="non-scaling-stroke" d="
  M 800.73 838.50
  A 0.74 0.74 0.0 0 1 801.47 837.76
  L 813.52 837.74
  A 0.74 0.74 0.0 0 0 814.26 837.00
  L 814.24 827.24
  A 0.74 0.74 0.0 0 0 813.50 826.50
  L 775.99 826.51
  A 0.74 0.74 0.0 0 0 775.25 827.25
  L 775.25 837.00
  A 0.74 0.74 0.0 0 0 775.99 837.74
  L 787.97 837.76
  A 0.74 0.74 0.0 0 1 788.71 838.50
  L 788.73 884.99
  A 0.74 0.74 0.0 0 0 789.47 885.73
  L 800.01 885.74
  A 0.74 0.74 0.0 0 0 800.75 885.00
  L 800.73 838.50"
/>
<path stroke="#767d82" vector-effect="non-scaling-stroke" d="
  M 559.72 691.61
  C 556.23 679.68 560.78 668.26 571.39 662.09
  C 585.83 653.69 606.21 654.18 617.74 667.25
  Q 619.59 669.34 622.18 672.07
  A 1.22 1.21 -35.4 0 0 623.63 672.31
  L 624.09 672.07
  A 1.13 1.13 0.0 0 0 624.47 670.40
  Q 608.67 649.10 582.74 654.36
  Q 572.65 656.40 565.59 662.08
  C 554.13 671.28 552.33 688.61 560.63 700.15
  C 564.34 705.29 570.77 709.72 576.56 712.69
  C 586.96 718.01 603.14 724.62 615.06 732.95
  C 624.62 739.64 630.25 749.34 629.11 760.60
  C 627.14 780.06 612.30 792.12 592.75 789.99
  Q 573.56 787.90 562.46 772.48
  Q 561.94 771.75 561.51 771.56
  Q 560.56 771.14 559.96 772.42
  A 1.60 1.59 43.2 0 0 560.01 773.86
  C 570.73 793.25 602.45 799.54 619.53 785.62
  C 632.57 775.01 636.57 755.60 627.79 741.21
  C 622.76 732.95 613.82 727.80 605.66 723.18
  C 589.83 714.20 564.92 709.41 559.72 691.61"
/>
<path stroke="#767d82" vector-effect="non-scaling-stroke" d="
  M 279.47 791.39
  A 0.74 0.74 0.0 0 0 280.18 790.65
  L 280.24 658.50
  A 0.74 0.74 0.0 0 1 280.98 657.76
  L 316.46 657.73
  A 0.74 0.74 0.0 0 0 317.19 656.88
  L 316.92 655.13
  A 0.74 0.74 0.0 0 0 316.19 654.50
  L 239.52 654.50
  A 0.74 0.74 0.0 0 0 238.79 655.16
  L 238.60 656.92
  A 0.74 0.74 0.0 0 0 239.33 657.74
  L 276.23 657.76
  A 0.74 0.74 0.0 0 1 276.97 658.50
  L 277.02 790.73
  A 0.74 0.74 0.0 0 0 277.79 791.47
  L 279.47 791.39"
/>
<path stroke="#767d82" vector-effect="non-scaling-stroke" d="
  M 463.42 753.65
  L 474.55 790.00
  Q 474.91 791.16 476.12 791.14
  L 476.58 791.14
  A 0.77 0.76 -8.9 0 0 477.30 790.16
  Q 457.22 723.35 437.17 656.77
  C 435.96 652.76 432.33 653.95 431.31 657.47
  Q 412.00 723.85 392.67 790.24
  A 0.96 0.96 0.0 0 0 393.55 791.47
  L 393.85 791.48
  Q 395.30 791.53 395.70 790.14
  L 406.37 753.49
  Q 406.51 753.00 407.02 753.00
  L 462.54 753.00
  Q 463.22 753.00 463.42 753.65"
/>
<path stroke="#767d82" vector-effect="non-scaling-stroke" d="
  M 723.53 736.15
  A 0.33 0.33 0.0 0 1 722.94 735.96
  L 722.98 654.92
  A 0.33 0.33 0.0 0 0 722.64 654.59
  L 720.46 654.66
  A 0.33 0.33 0.0 0 0 720.14 654.99
  L 720.20 791.42
  A 0.33 0.33 0.0 0 0 720.55 791.74
  L 722.66 791.59
  A 0.33 0.33 0.0 0 0 722.97 791.26
  L 722.95 742.03
  A 0.33 0.33 0.0 0 1 723.02 741.83
  L 753.75 701.02
  A 0.33 0.33 0.0 0 1 754.32 701.10
  L 789.20 791.39
  A 0.33 0.33 0.0 0 0 789.60 791.59
  L 791.99 790.92
  A 0.33 0.33 0.0 0 0 792.21 790.48
  L 756.45 697.41
  A 0.33 0.33 0.0 0 1 756.49 697.09
  L 789.60 652.98
  A 0.33 0.33 0.0 0 0 789.48 652.49
  L 787.13 651.37
  A 0.33 0.33 0.0 0 0 786.73 651.47
  L 723.53 736.15"
/>
<path stroke="#767d82" vector-effect="non-scaling-stroke" d="
  M 407.36 749.35
  A 0.35 0.35 0.0 0 0 407.69 749.80
  L 461.71 749.71
  A 0.35 0.35 0.0 0 0 462.05 749.26
  L 434.88 658.88
  A 0.35 0.35 0.0 0 0 434.21 658.88
  L 407.36 749.35"
/>
<path stroke="#767d82" vector-effect="non-scaling-stroke" d="
  M 424.84 737.90
  A 0.33 0.33 0.0 0 0 425.17 738.32
  L 445.01 738.18
  A 0.33 0.33 0.0 0 0 445.33 737.76
  L 435.15 701.67
  A 0.33 0.33 0.0 0 0 434.51 701.68
  L 424.84 737.90"
/>
<path stroke="#767d82" vector-effect="non-scaling-stroke" d="
  M 508.48 859.92
  C 509.24 868.25 509.12 878.86 497.75 879.72
  C 491.32 880.21 483.70 879.90 481.49 872.23
  C 481.05 870.69 480.55 869.16 480.56 867.52
  Q 480.64 855.39 480.77 843.25
  C 480.93 829.47 502.90 828.69 507.83 839.42
  A 1.43 1.38 -51.8 0 1 507.92 840.30
  Q 507.67 841.43 507.80 841.71
  Q 509.27 844.91 509.24 841.39
  Q 509.21 838.69 507.36 836.32
  C 501.77 829.15 484.67 829.04 480.81 838.38
  Q 479.80 840.83 479.72 842.50
  Q 479.38 849.53 479.65 866.16
  Q 479.74 871.76 480.46 873.76
  C 482.86 880.44 492.36 881.57 498.46 880.64
  C 510.94 878.76 510.00 868.24 510.05 858.60
  Q 510.05 857.98 509.42 857.98
  L 496.79 858.08
  Q 496.46 858.08 496.49 858.41
  L 496.52 858.77
  A 0.47 0.47 0.0 0 0 496.98 859.21
  L 507.78 859.28
  Q 508.42 859.28 508.48 859.92"
/>
<path stroke="#767d82" vector-effect="non-scaling-stroke" d="
  M 230.48 832.60
  Q 231.55 832.28 232.69 832.39
  A 0.83 0.82 83.4 0 1 233.39 832.95
  L 248.25 877.45
  Q 249.06 879.89 249.88 877.46
  Q 257.15 855.92 264.32 834.27
  Q 265.02 832.17 267.38 832.35
  A 0.93 0.93 0.0 0 1 268.23 833.28
  L 268.26 880.20
  Q 268.26 880.46 268.52 880.46
  L 268.88 880.45
  A 0.62 0.62 0.0 0 0 269.49 879.83
  L 269.48 832.75
  A 1.06 1.04 -79.4 0 0 268.82 831.77
  C 264.03 829.86 263.62 832.99 262.34 836.78
  Q 256.29 854.80 250.06 873.76
  Q 249.17 876.45 248.28 873.77
  L 234.56 832.64
  Q 234.16 831.45 232.90 831.47
  L 230.22 831.51
  Q 228.97 831.53 228.97 832.78
  L 228.98 880.33
  Q 228.98 880.68 229.33 880.67
  L 229.65 880.65
  A 0.40 0.40 0.0 0 0 230.03 880.24
  L 229.84 833.46
  Q 229.84 832.79 230.48 832.60"
/>
<path stroke="#767d82" vector-effect="non-scaling-stroke" d="
  M 330.91 879.80
  C 326.97 867.28 323.22 854.69 319.39 842.13
  C 318.63 839.64 317.70 835.44 316.26 832.20
  Q 316.11 831.85 315.89 831.68
  Q 315.04 831.05 314.37 832.18
  A 1.19 1.08 68.7 0 0 314.29 832.39
  Q 307.39 856.36 300.33 880.29
  Q 300.27 880.49 300.47 880.54
  L 300.72 880.60
  A 0.68 0.67 14.1 0 0 301.53 880.12
  L 305.08 867.69
  A 1.29 1.28 -81.8 0 1 306.31 866.76
  L 325.46 866.77
  A 0.40 0.39 80.6 0 1 325.83 867.04
  L 329.84 879.98
  A 0.41 0.41 0.0 0 0 330.35 880.25
  L 330.75 880.12
  A 0.26 0.24 73.0 0 0 330.91 879.80"
/>
<path stroke="#767d82" vector-effect="non-scaling-stroke" d="
  M 363.26 835.98
  Q 363.26 834.25 364.03 835.79
  L 385.69 879.01
  Q 387.86 883.33 387.85 878.49
  L 387.79 831.72
  A 0.34 0.33 -87.2 0 0 387.49 831.38
  L 387.18 831.35
  A 0.74 0.74 0.0 0 0 386.36 832.09
  L 386.38 875.50
  Q 386.38 876.85 385.42 875.76
  Q 385.27 875.58 384.90 874.86
  Q 373.90 853.19 362.99 831.62
  A 0.38 0.38 0.0 0 0 362.28 831.79
  L 362.20 880.21
  Q 362.20 880.69 362.68 880.70
  L 363.01 880.71
  Q 363.24 880.71 363.24 880.49
  L 363.26 835.98"
/>
<path stroke="#767d82" vector-effect="non-scaling-stroke" d="
  M 423.75 867.73
  Q 424.03 866.77 425.03 866.77
  L 443.48 866.75
  A 1.21 1.20 81.5 0 1 444.63 867.61
  L 448.56 880.60
  Q 448.60 880.72 448.73 880.69
  L 448.98 880.62
  A 0.48 0.47 75.5 0 0 449.31 880.05
  Q 447.89 874.26 445.87 868.62
  C 445.46 867.48 445.51 866.19 445.10 864.99
  Q 441.93 855.58 439.21 846.03
  C 438.25 842.66 436.91 839.33 436.24 835.91
  Q 435.85 833.97 435.35 832.81
  Q 433.80 829.23 432.71 832.98
  L 419.13 879.64
  Q 419.08 879.82 419.23 879.93
  L 419.48 880.11
  Q 420.05 880.51 420.24 879.85
  L 423.75 867.73"
/>
<path stroke="#767d82" vector-effect="non-scaling-stroke" d="
  M 543.99 879.49
  A 0.25 0.25 0.0 0 1 543.74 879.24
  L 543.81 856.25
  A 0.25 0.25 0.0 0 1 544.06 856.00
  L 560.29 855.97
  A 0.25 0.25 0.0 0 0 560.54 855.69
  L 560.45 854.96
  A 0.25 0.25 0.0 0 0 560.20 854.74
  L 544.10 854.73
  A 0.25 0.25 0.0 0 1 543.85 854.48
  L 543.77 832.73
  A 0.25 0.25 0.0 0 1 544.02 832.48
  L 564.43 832.50
  A 0.25 0.25 0.0 0 0 564.68 832.26
  L 564.69 831.72
  A 0.25 0.25 0.0 0 0 564.44 831.46
  L 542.62 831.52
  A 0.25 0.25 0.0 0 0 542.37 831.77
  L 542.39 880.53
  A 0.25 0.25 0.0 0 0 542.64 880.78
  L 563.97 880.76
  A 0.25 0.25 0.0 0 0 564.22 880.51
  L 564.23 879.76
  A 0.25 0.25 0.0 0 0 563.98 879.51
  L 543.99 879.49"
/>
<path stroke="#767d82" vector-effect="non-scaling-stroke" d="
  M 615.59 874.72
  L 601.42 832.25
  A 1.28 1.27 -10.1 0 0 600.17 831.38
  L 596.90 831.48
  A 1.12 1.12 0.0 0 0 595.81 832.60
  L 595.89 880.24
  Q 595.89 880.74 596.39 880.72
  L 596.78 880.70
  Q 597.24 880.69 597.24 880.23
  L 597.24 833.16
  Q 597.24 832.56 597.84 832.54
  L 599.66 832.49
  A 1.00 1.00 0.0 0 1 600.64 833.18
  L 615.25 877.04
  Q 616.18 879.82 617.11 877.04
  Q 624.09 856.09 631.47 833.96
  Q 631.98 832.43 634.26 832.32
  A 0.90 0.90 0.0 0 1 635.20 833.22
  L 635.20 879.97
  A 0.63 0.63 0.0 0 0 635.70 880.57
  L 636.08 880.65
  Q 636.49 880.73 636.49 880.31
  L 636.49 832.16
  A 0.65 0.65 0.0 0 0 635.84 831.51
  L 631.92 831.49
  Q 631.20 831.48 630.97 832.17
  L 616.78 874.72
  Q 616.18 876.50 615.59 874.72"
/>
<path stroke="#767d82" vector-effect="non-scaling-stroke" d="
  M 671.70 856.27
  A 0.25 0.25 0.0 0 1 671.95 856.02
  L 688.26 855.96
  A 0.25 0.25 0.0 0 0 688.50 855.69
  L 688.43 854.97
  A 0.25 0.25 0.0 0 0 688.18 854.74
  L 671.92 854.73
  A 0.25 0.25 0.0 0 1 671.67 854.48
  L 671.76 832.73
  A 0.25 0.25 0.0 0 1 672.01 832.48
  L 692.34 832.49
  A 0.25 0.25 0.0 0 0 692.59 832.29
  L 692.68 831.78
  A 0.25 0.25 0.0 0 0 692.44 831.48
  L 670.70 831.50
  A 0.25 0.25 0.0 0 0 670.45 831.75
  L 670.46 880.53
  A 0.25 0.25 0.0 0 0 670.71 880.78
  L 691.94 880.76
  A 0.25 0.25 0.0 0 0 692.19 880.56
  L 692.33 879.80
  A 0.25 0.25 0.0 0 0 692.08 879.51
  L 671.99 879.48
  A 0.25 0.25 0.0 0 1 671.74 879.23
  L 671.70 856.27"
/>
<path stroke="#767d82" vector-effect="non-scaling-stroke" d="
  M 726.17 835.67
  Q 726.57 836.03 726.95 836.79
  Q 737.71 858.29 748.41 878.97
  Q 750.24 882.50 750.24 878.53
  L 750.23 832.01
  Q 750.23 831.52 749.74 831.52
  L 749.43 831.52
  A 0.27 0.26 0.0 0 0 749.16 831.78
  C 749.15 846.69 749.52 861.66 749.02 876.51
  Q 748.98 877.47 748.55 876.62
  L 726.08 832.50
  Q 724.94 830.26 724.73 832.76
  Q 724.31 837.69 724.41 843.10
  C 724.63 855.46 724.54 867.81 724.68 880.20
  Q 724.69 880.46 724.94 880.49
  L 725.49 880.55
  Q 725.62 880.57 725.62 880.44
  L 725.87 835.80
  A 0.18 0.18 0.0 0 1 726.17 835.67"
/>
<path stroke="#767d82" vector-effect="non-scaling-stroke" d="
  M 793.63 832.51
  A 0.24 0.24 0.0 0 1 793.87 832.75
  L 793.93 879.75
  A 0.24 0.24 0.0 0 0 794.15 879.99
  L 794.95 880.07
  A 0.24 0.24 0.0 0 0 795.21 879.83
  L 795.19 832.74
  A 0.24 0.24 0.0 0 1 795.43 832.50
  L 808.27 832.50
  A 0.24 0.24 0.0 0 0 808.51 832.26
  L 808.51 831.71
  A 0.24 0.24 0.0 0 0 808.27 831.47
  L 780.57 831.54
  A 0.24 0.24 0.0 0 0 780.33 831.78
  L 780.33 832.25
  A 0.24 0.24 0.0 0 0 780.57 832.49
  L 793.63 832.51"
/>
<path stroke="#767d82" vector-effect="non-scaling-stroke" d="
  M 433.61 834.60
  Q 433.43 835.03 433.30 835.47
  Q 428.91 850.35 424.34 865.23
  A 0.42 0.42 0.0 0 0 424.74 865.77
  L 443.20 865.75
  Q 444.06 865.75 443.81 864.92
  L 434.86 835.30
  Q 434.74 834.90 434.45 834.59
  Q 434.06 834.19 434.21 833.60
  Q 434.26 833.36 434.05 833.24
  Q 433.87 833.15 433.74 833.23
  Q 433.61 833.32 433.61 833.55
  Q 433.62 833.75 433.67 833.94
  Q 433.75 834.28 433.61 834.60"
/>
<path stroke="#767d82" vector-effect="non-scaling-stroke" d="
  M 305.82 865.38
  A 0.32 0.32 0.0 0 0 306.13 865.79
  L 325.04 865.73
  A 0.32 0.32 0.0 0 0 325.35 865.31
  L 315.78 833.67
  A 0.32 0.32 0.0 0 0 315.17 833.67
  L 305.82 865.38"
/>
<path stroke="#767d82" vector-effect="non-scaling-stroke" d="
  M 312.13 861.13
  A 0.32 0.32 0.0 0 0 312.45 861.53
  L 319.11 861.46
  A 0.32 0.32 0.0 0 0 319.41 861.06
  L 315.96 849.00
  A 0.32 0.32 0.0 0 0 315.34 849.00
  L 312.13 861.13"
/>
<path stroke="#767d82" vector-effect="non-scaling-stroke" d="
  M 430.74 861.14
  A 0.31 0.31 0.0 0 0 431.04 861.53
  L 437.67 861.46
  A 0.31 0.31 0.0 0 0 437.97 861.06
  L 434.53 848.96
  A 0.31 0.31 0.0 0 0 433.93 848.96
  L 430.74 861.14"
/>
</g>
<path fill="#dbe8f3" d="
  M 0.00 0.00
  L 1041.00 0.00
  L 1041.00 1040.00
  L 0.00 1040.00
  L 0.00 0.00
  Z
  M 365.23 194.01
  C 365.61 187.46 370.24 185.71 376.19 185.29
  C 390.78 184.29 405.36 183.21 419.98 182.59
  C 473.73 180.32 515.45 178.93 568.74 180.58
  C 604.77 181.70 632.45 182.70 665.76 185.25
  C 673.23 185.82 677.67 187.32 678.10 195.37
  Q 681.21 254.16 682.22 286.00
  Q 683.31 320.32 682.98 378.50
  Q 682.96 381.69 684.71 385.14
  Q 685.92 387.52 688.91 390.37
  Q 699.39 400.36 709.81 410.41
  Q 711.44 411.98 713.21 412.55
  A 2.29 2.28 18.8 0 0 716.05 411.16
  Q 716.62 409.62 716.64 407.50
  C 716.91 383.68 717.20 359.82 716.74 336.00
  Q 715.20 257.07 709.24 178.35
  C 708.55 169.18 708.31 161.27 699.43 156.63
  Q 696.20 154.94 689.18 154.42
  C 571.31 145.67 459.35 146.20 344.75 155.52
  Q 341.28 155.81 338.54 157.79
  Q 331.65 162.77 331.05 171.27
  Q 327.60 220.47 325.68 269.75
  C 321.90 367.08 323.54 469.35 329.71 573.79
  C 330.23 582.59 331.59 588.73 339.07 592.96
  Q 342.06 594.64 347.77 595.28
  Q 416.18 602.84 485.00 603.96
  C 488.13 604.01 492.25 603.81 493.84 600.55
  Q 494.06 600.09 493.84 599.62
  Q 492.22 596.18 490.29 594.23
  Q 481.65 585.49 473.07 576.69
  Q 469.28 572.81 466.12 571.37
  Q 461.82 569.40 457.25 569.24
  Q 409.72 567.49 372.18 564.68
  C 366.64 564.27 365.08 558.37 364.84 553.86
  C 360.84 479.21 359.36 403.71 360.33 329.75
  Q 361.19 263.55 365.23 194.01
  Z
  M 395.87 258.53
  C 396.29 263.87 400.52 265.46 405.25 265.31
  Q 518.25 261.79 631.25 265.22
  C 636.37 265.37 642.45 265.52 642.95 259.01
  Q 643.21 255.56 643.02 246.81
  C 642.88 240.44 641.58 235.60 634.50 235.31
  Q 521.63 230.72 405.50 235.29
  C 399.60 235.52 396.95 238.59 396.24 244.44
  Q 395.34 251.76 395.87 258.53
  Z
  M 643.44 312.77
  C 642.58 306.90 637.93 306.54 632.75 306.44
  Q 569.93 305.29 536.05 305.20
  C 491.45 305.07 448.77 305.64 405.12 306.36
  C 399.48 306.46 394.66 307.50 394.54 314.26
  C 394.46 319.00 393.19 330.60 396.81 333.95
  Q 398.48 335.50 401.68 335.81
  C 405.62 336.18 410.50 335.73 413.44 335.74
  C 434.25 335.76 455.06 335.50 475.84 335.50
  C 526.20 335.50 576.55 335.71 626.91 335.76
  C 632.75 335.76 643.80 338.17 644.18 329.01
  Q 644.54 320.29 643.44 312.77
  Z
  M 644.94 384.79
  A 7.79 7.79 0.0 0 0 637.15 377.00
  L 403.05 377.00
  A 7.79 7.79 0.0 0 0 395.26 384.79
  L 395.26 398.93
  A 7.79 7.79 0.0 0 0 403.05 406.72
  L 637.15 406.72
  A 7.79 7.79 0.0 0 0 644.94 398.93
  L 644.94 384.79
  Z
  M 560.51 536.75
  C 556.44 540.49 550.93 539.99 547.13 536.11
  Q 529.58 518.22 511.79 500.54
  Q 506.75 495.53 504.27 494.57
  Q 498.92 492.50 493.83 497.36
  C 487.89 503.04 479.32 513.04 471.61 520.36
  C 466.39 525.30 467.00 531.97 471.96 536.79
  C 488.49 552.86 508.68 574.26 526.18 591.95
  C 533.21 599.05 537.12 603.15 546.01 604.48
  Q 558.51 606.36 569.72 600.67
  Q 573.24 598.88 578.34 593.84
  C 583.50 588.75 588.90 582.60 593.29 578.10
  Q 608.13 562.91 622.94 547.67
  Q 641.01 529.08 659.28 510.67
  Q 659.31 510.64 670.24 499.35
  C 681.02 488.22 691.58 478.55 705.13 464.86
  C 710.85 459.08 715.61 453.37 708.42 446.59
  C 701.09 439.67 693.95 432.62 686.39 425.94
  C 678.98 419.39 670.93 425.08 664.85 430.61
  C 643.23 450.30 622.63 471.29 602.51 492.52
  C 594.97 500.48 587.48 508.56 579.83 516.42
  C 573.75 522.69 566.81 530.95 560.51 536.75
  Z
  M 573.35 730.51
  C 583.80 735.63 595.24 738.97 604.90 745.60
  C 611.67 750.24 615.19 758.92 611.01 766.14
  C 606.72 773.54 596.80 776.27 588.81 773.93
  C 580.95 771.62 574.64 765.36 571.14 757.89
  Q 570.03 755.51 569.07 753.68
  A 2.11 2.11 0.0 0 0 565.83 753.05
  L 542.80 772.78
  A 2.03 2.02 59.7 0 0 542.22 775.01
  C 549.27 794.53 569.14 806.73 589.25 807.81
  Q 598.97 808.33 603.00 807.94
  C 623.23 806.00 638.80 795.15 645.34 775.76
  C 657.16 740.64 639.48 722.29 610.85 707.28
  C 600.52 701.86 588.06 698.80 579.01 691.25
  C 573.24 686.43 572.59 677.75 580.20 674.18
  C 596.67 666.47 608.81 676.01 617.77 689.22
  Q 619.13 691.23 620.79 690.08
  Q 631.64 682.55 642.48 675.00
  Q 644.22 673.79 643.54 672.26
  C 637.63 658.84 626.82 645.92 612.10 641.09
  C 600.50 637.27 589.14 638.26 577.02 641.08
  C 557.76 645.57 541.89 660.50 539.87 680.52
  C 538.71 692.08 542.01 703.70 549.56 712.46
  Q 559.08 723.51 573.35 730.51
  Z
  M 295.79 672.00
  L 330.81 672.00
  A 2.06 2.06 0.0 0 0 332.87 669.94
  L 332.89 642.83
  A 2.08 2.08 0.0 0 0 330.81 640.75
  L 227.00 640.75
  Q 224.25 640.75 224.25 643.50
  L 224.25 669.50
  Q 224.25 671.99 226.75 672.00
  L 261.24 672.01
  A 0.74 0.73 -0.0 0 1 261.98 672.74
  L 261.98 803.49
  A 2.01 2.01 0.0 0 0 263.99 805.50
  L 292.73 805.50
  A 2.49 2.49 0.0 0 0 295.22 803.01
  L 295.22 672.57
  A 0.57 0.57 0.0 0 1 295.79 672.00
  Z
  M 417.27 769.26
  L 452.70 769.25
  A 0.70 0.69 -7.7 0 1 453.37 769.76
  L 462.98 804.09
  A 1.94 1.93 82.0 0 0 464.84 805.50
  L 493.39 805.50
  A 2.13 2.12 82.5 0 0 495.44 802.82
  L 452.22 642.26
  A 2.03 2.03 0.0 0 0 450.26 640.75
  L 419.76 640.75
  A 2.06 2.05 -82.4 0 0 417.78 642.27
  Q 396.29 722.00 374.67 801.98
  Q 374.29 803.36 374.65 804.13
  A 2.38 2.29 77.0 0 0 376.75 805.50
  L 405.41 805.50
  Q 406.86 805.50 407.25 804.10
  L 416.62 769.76
  Q 416.75 769.26 417.27 769.26
  Z
  M 737.90 692.94
  L 737.92 642.72
  A 1.96 1.96 0.0 0 0 735.96 640.76
  L 707.63 640.75
  Q 705.25 640.75 705.25 643.12
  L 705.25 803.75
  A 1.75 1.74 -0.0 0 0 707.00 805.49
  L 735.43 805.50
  Q 737.86 805.50 737.86 803.07
  L 737.92 748.23
  A 3.98 3.97 -26.9 0 1 738.69 745.88
  L 750.14 730.21
  A 0.44 0.44 0.0 0 1 750.91 730.32
  L 776.73 804.35
  Q 777.13 805.50 778.34 805.50
  L 812.79 805.49
  A 1.59 1.59 0.0 0 0 814.27 803.31
  L 772.79 698.97
  Q 772.60 698.51 772.89 698.10
  L 811.80 644.28
  A 2.23 2.22 -72.1 0 0 810.00 640.75
  L 778.47 640.75
  A 1.23 1.23 0.0 0 0 777.48 641.25
  L 738.96 693.29
  Q 737.90 694.72 737.90 692.94
  Z
  M 503.39 864.69
  C 502.96 869.05 502.59 872.85 497.75 874.02
  C 491.03 875.66 486.30 873.08 486.27 865.75
  Q 486.23 856.37 486.36 847.00
  C 486.41 843.57 486.90 839.88 489.74 838.66
  Q 493.41 837.09 498.04 837.98
  C 502.51 838.83 502.86 842.19 503.58 846.41
  A 0.70 0.70 0.0 0 0 504.27 846.99
  L 514.47 847.00
  Q 515.10 847.00 515.15 846.38
  C 516.60 829.02 504.18 823.74 489.04 826.09
  Q 474.65 828.34 474.38 843.00
  Q 474.13 856.50 474.35 869.99
  Q 474.53 881.53 484.68 885.10
  C 488.48 886.43 493.07 886.03 497.30 886.01
  Q 503.32 885.98 506.49 884.50
  C 517.47 879.37 515.47 865.77 515.16 853.43
  Q 515.15 853.00 514.72 853.00
  L 493.75 853.00
  Q 493.25 853.00 493.25 853.50
  L 493.24 863.59
  A 0.60 0.60 0.0 0 0 493.84 864.19
  L 503.01 864.27
  Q 503.43 864.28 503.39 864.69
  Z
  M 235.70 854.30
  Q 235.70 851.41 236.46 854.20
  L 244.73 884.53
  A 1.62 1.61 -7.2 0 0 246.26 885.71
  L 252.50 885.78
  A 1.07 1.06 8.6 0 0 253.54 885.02
  L 262.37 854.83
  Q 263.25 851.81 263.25 854.95
  L 263.24 884.84
  A 0.89 0.89 0.0 0 0 264.13 885.73
  L 273.58 885.75
  A 1.17 1.17 0.0 0 0 274.75 884.58
  L 274.74 827.78
  A 1.29 1.29 0.0 0 0 273.45 826.49
  L 262.51 826.51
  Q 261.18 826.52 260.76 827.78
  L 249.42 862.32
  A 0.32 0.32 0.0 0 1 248.81 862.31
  L 238.23 827.03
  Q 238.07 826.48 237.50 826.49
  L 224.98 826.54
  A 0.73 0.73 0.0 0 0 224.25 827.27
  L 224.25 884.74
  Q 224.25 885.74 225.24 885.74
  L 234.50 885.76
  A 1.26 1.25 90.0 0 0 235.75 884.50
  L 235.70 854.30
  Z
  M 321.81 872.75
  A 0.75 0.75 0.0 0 1 322.54 873.31
  L 325.69 885.17
  A 0.75 0.75 0.0 0 0 326.42 885.73
  L 336.71 885.76
  A 0.75 0.75 0.0 0 0 337.44 884.81
  L 321.92 827.07
  A 0.75 0.75 0.0 0 0 321.20 826.52
  L 310.22 826.50
  A 0.75 0.75 0.0 0 0 309.49 827.06
  L 293.93 884.75
  A 0.75 0.75 0.0 0 0 294.65 885.70
  L 305.02 885.78
  A 0.75 0.75 0.0 0 0 305.75 885.22
  L 308.93 873.32
  A 0.75 0.75 0.0 0 1 309.66 872.76
  L 321.81 872.75
  Z
  M 368.87 856.64
  L 381.65 885.29
  Q 381.85 885.75 382.36 885.75
  L 392.26 885.74
  Q 393.25 885.73 393.25 884.74
  L 393.25 827.00
  Q 393.25 826.49 392.75 826.49
  L 382.00 826.51
  Q 381.26 826.51 381.26 827.25
  L 381.23 854.28
  Q 381.23 855.82 380.61 854.41
  L 368.94 827.53
  A 1.73 1.72 78.3 0 0 367.36 826.49
  L 357.65 826.53
  A 0.92 0.92 0.0 0 0 356.73 827.45
  L 356.73 884.98
  A 0.75 0.75 0.0 0 0 357.48 885.73
  L 367.75 885.76
  A 0.77 0.76 0.0 0 0 368.52 885.00
  L 368.44 856.73
  Q 368.44 855.69 368.87 856.64
  Z
  M 440.23 872.75
  A 0.88 0.88 0.0 0 1 441.08 873.40
  L 444.33 885.10
  A 0.88 0.88 0.0 0 0 445.18 885.75
  L 455.14 885.73
  A 0.88 0.88 0.0 0 0 455.99 884.62
  L 440.52 827.13
  A 0.88 0.88 0.0 0 0 439.66 826.48
  L 428.88 826.53
  A 0.88 0.88 0.0 0 0 428.04 827.18
  L 412.55 884.62
  A 0.88 0.88 0.0 0 0 413.40 885.73
  L 423.51 885.76
  A 0.88 0.88 0.0 0 0 424.36 885.10
  L 427.48 873.41
  A 0.88 0.88 0.0 0 1 428.33 872.76
  L 440.23 872.75
  Z
  M 549.81 850.00
  A 0.57 0.57 0.0 0 1 549.24 849.43
  L 549.25 838.33
  A 0.57 0.57 0.0 0 1 549.82 837.76
  L 568.90 837.74
  A 0.57 0.57 0.0 0 0 569.47 837.17
  L 569.49 827.08
  A 0.57 0.57 0.0 0 0 568.92 826.51
  L 537.82 826.48
  A 0.57 0.57 0.0 0 0 537.25 827.05
  L 537.23 885.19
  A 0.57 0.57 0.0 0 0 537.80 885.76
  L 568.92 885.75
  A 0.57 0.57 0.0 0 0 569.49 885.18
  L 569.49 875.07
  A 0.57 0.57 0.0 0 0 568.92 874.50
  L 549.82 874.50
  A 0.57 0.57 0.0 0 1 549.25 873.93
  L 549.26 861.82
  A 0.57 0.57 0.0 0 1 549.83 861.25
  L 564.45 861.25
  A 0.57 0.57 0.0 0 0 565.02 860.68
  L 565.02 850.59
  A 0.57 0.57 0.0 0 0 564.45 850.02
  L 549.81 850.00
  Z
  M 630.48 853.31
  L 630.50 885.35
  A 0.39 0.39 0.0 0 0 630.89 885.74
  L 641.13 885.75
  Q 641.75 885.75 641.75 885.12
  L 641.75 827.50
  A 1.01 1.00 89.7 0 0 640.75 826.50
  L 629.72 826.50
  A 2.00 2.00 0.0 0 0 627.82 827.88
  L 616.54 862.48
  Q 616.23 863.43 615.94 862.47
  L 605.39 827.13
  A 0.89 0.89 0.0 0 0 604.54 826.50
  L 592.00 826.51
  A 0.74 0.74 0.0 0 0 591.26 827.25
  L 591.25 884.75
  A 1.00 1.00 0.0 0 0 592.25 885.75
  L 602.02 885.74
  A 0.76 0.76 0.0 0 0 602.78 884.98
  L 602.64 852.75
  Q 602.64 852.50 602.68 852.48
  Q 602.78 852.41 602.95 852.48
  Q 603.05 852.51 603.08 852.62
  L 611.99 885.09
  A 0.86 0.85 -7.2 0 0 612.80 885.71
  L 619.45 885.77
  A 1.23 1.22 8.4 0 0 620.64 884.89
  L 630.00 853.25
  Q 630.48 851.64 630.48 853.31
  Z
  M 677.25 861.88
  A 0.64 0.64 0.0 0 1 677.89 861.24
  L 692.31 861.25
  A 0.64 0.64 0.0 0 0 692.95 860.61
  L 693.03 850.65
  A 0.64 0.64 0.0 0 0 692.39 850.01
  L 677.88 850.00
  A 0.64 0.64 0.0 0 1 677.24 849.36
  L 677.25 838.40
  A 0.64 0.64 0.0 0 1 677.89 837.76
  L 696.84 837.75
  A 0.64 0.64 0.0 0 0 697.48 837.11
  L 697.50 827.14
  A 0.64 0.64 0.0 0 0 696.86 826.50
  L 665.88 826.50
  A 0.64 0.64 0.0 0 0 665.24 827.14
  L 665.24 885.11
  A 0.64 0.64 0.0 0 0 665.88 885.75
  L 696.85 885.75
  A 0.64 0.64 0.0 0 0 697.49 885.11
  L 697.49 875.14
  A 0.64 0.64 0.0 0 0 696.85 874.50
  L 677.90 874.49
  A 0.64 0.64 0.0 0 1 677.26 873.85
  L 677.25 861.88
  Z
  M 731.83 857.10
  C 732.90 859.01 733.54 861.52 734.39 863.34
  Q 738.37 871.84 741.99 880.49
  Q 743.04 883.01 744.49 885.32
  A 0.92 0.92 0.0 0 0 745.27 885.75
  L 755.25 885.74
  Q 755.75 885.74 755.75 885.25
  L 755.75 827.01
  A 0.50 0.49 90.0 0 0 755.26 826.51
  L 744.49 826.50
  Q 743.98 826.50 743.99 827.01
  L 744.04 855.06
  Q 744.04 856.24 743.57 855.16
  L 731.33 827.01
  A 0.86 0.85 -11.4 0 0 730.54 826.49
  L 720.00 826.51
  A 0.75 0.74 0.0 0 0 719.25 827.25
  L 719.25 885.00
  A 0.75 0.75 0.0 0 0 720.01 885.75
  L 730.33 885.72
  A 0.92 0.92 0.0 0 0 731.25 884.79
  L 731.25 857.25
  Q 731.25 856.05 731.83 857.10
  Z
  M 800.73 838.50
  A 0.74 0.74 0.0 0 1 801.47 837.76
  L 813.52 837.74
  A 0.74 0.74 0.0 0 0 814.26 837.00
  L 814.24 827.24
  A 0.74 0.74 0.0 0 0 813.50 826.50
  L 775.99 826.51
  A 0.74 0.74 0.0 0 0 775.25 827.25
  L 775.25 837.00
  A 0.74 0.74 0.0 0 0 775.99 837.74
  L 787.97 837.76
  A 0.74 0.74 0.0 0 1 788.71 838.50
  L 788.73 884.99
  A 0.74 0.74 0.0 0 0 789.47 885.73
  L 800.01 885.74
  A 0.74 0.74 0.0 0 0 800.75 885.00
  L 800.73 838.50
  Z"
/>
<path fill="#111111" d="
  M 376.19 185.29
  C 370.24 185.71 365.61 187.46 365.23 194.01
  Q 361.19 263.55 360.33 329.75
  C 359.36 403.71 360.84 479.21 364.84 553.86
  C 365.08 558.37 366.64 564.27 372.18 564.68
  Q 409.72 567.49 457.25 569.24
  Q 461.82 569.40 466.12 571.37
  Q 469.28 572.81 473.07 576.69
  Q 481.65 585.49 490.29 594.23
  Q 492.22 596.18 493.84 599.62
  Q 494.06 600.09 493.84 600.55
  C 492.25 603.81 488.13 604.01 485.00 603.96
  Q 416.18 602.84 347.77 595.28
  Q 342.06 594.64 339.07 592.96
  C 331.59 588.73 330.23 582.59 329.71 573.79
  C 323.54 469.35 321.90 367.08 325.68 269.75
  Q 327.60 220.47 331.05 171.27
  Q 331.65 162.77 338.54 157.79
  Q 341.28 155.81 344.75 155.52
  C 459.35 146.20 571.31 145.67 689.18 154.42
  Q 696.20 154.94 699.43 156.63
  C 708.31 161.27 708.55 169.18 709.24 178.35
  Q 715.20 257.07 716.74 336.00
  C 717.20 359.82 716.91 383.68 716.64 407.50
  Q 716.62 409.62 716.05 411.16
  A 2.29 2.28 18.8 0 1 713.21 412.55
  Q 711.44 411.98 709.81 410.41
  Q 699.39 400.36 688.91 390.37
  Q 685.92 387.52 684.71 385.14
  Q 682.96 381.69 682.98 378.50
  Q 683.31 320.32 682.22 286.00
  Q 681.21 254.16 678.10 195.37
  C 677.67 187.32 673.23 185.82 665.76 185.25
  C 632.45 182.70 604.77 181.70 568.74 180.58
  C 515.45 178.93 473.73 180.32 419.98 182.59
  C 405.36 183.21 390.78 184.29 376.19 185.29
  Z"
/>
<path fill="#111111" d="
  M 405.25 265.31
  C 400.52 265.46 396.29 263.87 395.87 258.53
  Q 395.34 251.76 396.24 244.44
  C 396.95 238.59 399.60 235.52 405.50 235.29
  Q 521.63 230.72 634.50 235.31
  C 641.58 235.60 642.88 240.44 643.02 246.81
  Q 643.21 255.56 642.95 259.01
  C 642.45 265.52 636.37 265.37 631.25 265.22
  Q 518.25 261.79 405.25 265.31
  Z"
/>
<path fill="#111111" d="
  M 632.75 306.44
  C 637.93 306.54 642.58 306.90 643.44 312.77
  Q 644.54 320.29 644.18 329.01
  C 643.80 338.17 632.75 335.76 626.91 335.76
  C 576.55 335.71 526.20 335.50 475.84 335.50
  C 455.06 335.50 434.25 335.76 413.44 335.74
  C 410.50 335.73 405.62 336.18 401.68 335.81
  Q 398.48 335.50 396.81 333.95
  C 393.19 330.60 394.46 319.00 394.54 314.26
  C 394.66 307.50 399.48 306.46 405.12 306.36
  C 448.77 305.64 491.45 305.07 536.05 305.20
  Q 569.93 305.29 632.75 306.44
  Z"
/>
<rect fill="#111111" x="395.26" y="377.00" width="249.68" height="29.72" rx="7.79"/>
<path fill="#111111" d="
  M 547.13 536.11
  C 550.93 539.99 556.44 540.49 560.51 536.75
  C 566.81 530.95 573.75 522.69 579.83 516.42
  C 587.48 508.56 594.97 500.48 602.51 492.52
  C 622.63 471.29 643.23 450.30 664.85 430.61
  C 670.93 425.08 678.98 419.39 686.39 425.94
  C 693.95 432.62 701.09 439.67 708.42 446.59
  C 715.61 453.37 710.85 459.08 705.13 464.86
  C 691.58 478.55 681.02 488.22 670.24 499.35
  Q 659.31 510.64 659.28 510.67
  Q 641.01 529.08 622.94 547.67
  Q 608.13 562.91 593.29 578.10
  C 588.90 582.60 583.50 588.75 578.34 593.84
  Q 573.24 598.88 569.72 600.67
  Q 558.51 606.36 546.01 604.48
  C 537.12 603.15 533.21 599.05 526.18 591.95
  C 508.68 574.26 488.49 552.86 471.96 536.79
  C 467.00 531.97 466.39 525.30 471.61 520.36
  C 479.32 513.04 487.89 503.04 493.83 497.36
  Q 498.92 492.50 504.27 494.57
  Q 506.75 495.53 511.79 500.54
  Q 529.58 518.22 547.13 536.11
  Z"
/>
<path fill="#111111" d="
  M 604.90 745.60
  C 595.24 738.97 583.80 735.63 573.35 730.51
  Q 559.08 723.51 549.56 712.46
  C 542.01 703.70 538.71 692.08 539.87 680.52
  C 541.89 660.50 557.76 645.57 577.02 641.08
  C 589.14 638.26 600.50 637.27 612.10 641.09
  C 626.82 645.92 637.63 658.84 643.54 672.26
  Q 644.22 673.79 642.48 675.00
  Q 631.64 682.55 620.79 690.08
  Q 619.13 691.23 617.77 689.22
  C 608.81 676.01 596.67 666.47 580.20 674.18
  C 572.59 677.75 573.24 686.43 579.01 691.25
  C 588.06 698.80 600.52 701.86 610.85 707.28
  C 639.48 722.29 657.16 740.64 645.34 775.76
  C 638.80 795.15 623.23 806.00 603.00 807.94
  Q 598.97 808.33 589.25 807.81
  C 569.14 806.73 549.27 794.53 542.22 775.01
  A 2.03 2.02 59.7 0 1 542.80 772.78
  L 565.83 753.05
  A 2.11 2.11 0.0 0 1 569.07 753.68
  Q 570.03 755.51 571.14 757.89
  C 574.64 765.36 580.95 771.62 588.81 773.93
  C 596.80 776.27 606.72 773.54 611.01 766.14
  C 615.19 758.92 611.67 750.24 604.90 745.60
  Z
  M 559.72 691.61
  C 556.23 679.68 560.78 668.26 571.39 662.09
  C 585.83 653.69 606.21 654.18 617.74 667.25
  Q 619.59 669.34 622.18 672.07
  A 1.22 1.21 -35.4 0 0 623.63 672.31
  L 624.09 672.07
  A 1.13 1.13 0.0 0 0 624.47 670.40
  Q 608.67 649.10 582.74 654.36
  Q 572.65 656.40 565.59 662.08
  C 554.13 671.28 552.33 688.61 560.63 700.15
  C 564.34 705.29 570.77 709.72 576.56 712.69
  C 586.96 718.01 603.14 724.62 615.06 732.95
  C 624.62 739.64 630.25 749.34 629.11 760.60
  C 627.14 780.06 612.30 792.12 592.75 789.99
  Q 573.56 787.90 562.46 772.48
  Q 561.94 771.75 561.51 771.56
  Q 560.56 771.14 559.96 772.42
  A 1.60 1.59 43.2 0 0 560.01 773.86
  C 570.73 793.25 602.45 799.54 619.53 785.62
  C 632.57 775.01 636.57 755.60 627.79 741.21
  C 622.76 732.95 613.82 727.80 605.66 723.18
  C 589.83 714.20 564.92 709.41 559.72 691.61
  Z"
/>
<path fill="#111111" d="
  M 295.22 672.57
  L 295.22 803.01
  A 2.49 2.49 0.0 0 1 292.73 805.50
  L 263.99 805.50
  A 2.01 2.01 0.0 0 1 261.98 803.49
  L 261.98 672.74
  A 0.74 0.73 0.0 0 0 261.24 672.01
  L 226.75 672.00
  Q 224.25 671.99 224.25 669.50
  L 224.25 643.50
  Q 224.25 640.75 227.00 640.75
  L 330.81 640.75
  A 2.08 2.08 0.0 0 1 332.89 642.83
  L 332.87 669.94
  A 2.06 2.06 0.0 0 1 330.81 672.00
  L 295.79 672.00
  A 0.57 0.57 0.0 0 0 295.22 672.57
  Z
  M 279.47 791.39
  A 0.74 0.74 0.0 0 0 280.18 790.65
  L 280.24 658.50
  A 0.74 0.74 0.0 0 1 280.98 657.76
  L 316.46 657.73
  A 0.74 0.74 0.0 0 0 317.19 656.88
  L 316.92 655.13
  A 0.74 0.74 0.0 0 0 316.19 654.50
  L 239.52 654.50
  A 0.74 0.74 0.0 0 0 238.79 655.16
  L 238.60 656.92
  A 0.74 0.74 0.0 0 0 239.33 657.74
  L 276.23 657.76
  A 0.74 0.74 0.0 0 1 276.97 658.50
  L 277.02 790.73
  A 0.74 0.74 0.0 0 0 277.79 791.47
  L 279.47 791.39
  Z"
/>
<path fill="#111111" d="
  M 416.62 769.76
  L 407.25 804.10
  Q 406.86 805.50 405.41 805.50
  L 376.75 805.50
  A 2.38 2.29 77.0 0 1 374.65 804.13
  Q 374.29 803.36 374.67 801.98
  Q 396.29 722.00 417.78 642.27
  A 2.06 2.05 -82.4 0 1 419.76 640.75
  L 450.26 640.75
  A 2.03 2.03 0.0 0 1 452.22 642.26
  L 495.44 802.82
  A 2.13 2.12 82.5 0 1 493.39 805.50
  L 464.84 805.50
  A 1.94 1.93 82.0 0 1 462.98 804.09
  L 453.37 769.76
  A 0.70 0.69 -7.7 0 0 452.70 769.25
  L 417.27 769.26
  Q 416.75 769.26 416.62 769.76
  Z
  M 463.42 753.65
  L 474.55 790.00
  Q 474.91 791.16 476.12 791.14
  L 476.58 791.14
  A 0.77 0.76 -8.9 0 0 477.30 790.16
  Q 457.22 723.35 437.17 656.77
  C 435.96 652.76 432.33 653.95 431.31 657.47
  Q 412.00 723.85 392.67 790.24
  A 0.96 0.96 0.0 0 0 393.55 791.47
  L 393.85 791.48
  Q 395.30 791.53 395.70 790.14
  L 406.37 753.49
  Q 406.51 753.00 407.02 753.00
  L 462.54 753.00
  Q 463.22 753.00 463.42 753.65
  Z"
/>
<path fill="#111111" d="
  M 737.90 692.94
  Q 737.90 694.72 738.96 693.29
  L 777.48 641.25
  A 1.23 1.23 0.0 0 1 778.47 640.75
  L 810.00 640.75
  A 2.23 2.22 -72.1 0 1 811.80 644.28
  L 772.89 698.10
  Q 772.60 698.51 772.79 698.97
  L 814.27 803.31
  A 1.59 1.59 0.0 0 1 812.79 805.49
  L 778.34 805.50
  Q 777.13 805.50 776.73 804.35
  L 750.91 730.32
  A 0.44 0.44 0.0 0 0 750.14 730.21
  L 738.69 745.88
  A 3.98 3.97 -26.9 0 0 737.92 748.23
  L 737.86 803.07
  Q 737.86 805.50 735.43 805.50
  L 707.00 805.49
  A 1.75 1.74 0.0 0 1 705.25 803.75
  L 705.25 643.12
  Q 705.25 640.75 707.63 640.75
  L 735.96 640.76
  A 1.96 1.96 0.0 0 1 737.92 642.72
  L 737.90 692.94
  Z
  M 723.53 736.15
  A 0.33 0.33 0.0 0 1 722.94 735.96
  L 722.98 654.92
  A 0.33 0.33 0.0 0 0 722.64 654.59
  L 720.46 654.66
  A 0.33 0.33 0.0 0 0 720.14 654.99
  L 720.20 791.42
  A 0.33 0.33 0.0 0 0 720.55 791.74
  L 722.66 791.59
  A 0.33 0.33 0.0 0 0 722.97 791.26
  L 722.95 742.03
  A 0.33 0.33 0.0 0 1 723.02 741.83
  L 753.75 701.02
  A 0.33 0.33 0.0 0 1 754.32 701.10
  L 789.20 791.39
  A 0.33 0.33 0.0 0 0 789.60 791.59
  L 791.99 790.92
  A 0.33 0.33 0.0 0 0 792.21 790.48
  L 756.45 697.41
  A 0.33 0.33 0.0 0 1 756.49 697.09
  L 789.60 652.98
  A 0.33 0.33 0.0 0 0 789.48 652.49
  L 787.13 651.37
  A 0.33 0.33 0.0 0 0 786.73 651.47
  L 723.53 736.15
  Z"
/>
<path fill="#dbe8f3" d="
  M 723.53 736.15
  L 786.73 651.47
  A 0.33 0.33 0.0 0 1 787.13 651.37
  L 789.48 652.49
  A 0.33 0.33 0.0 0 1 789.60 652.98
  L 756.49 697.09
  A 0.33 0.33 0.0 0 0 756.45 697.41
  L 792.21 790.48
  A 0.33 0.33 0.0 0 1 791.99 790.92
  L 789.60 791.59
  A 0.33 0.33 0.0 0 1 789.20 791.39
  L 754.32 701.10
  A 0.33 0.33 0.0 0 0 753.75 701.02
  L 723.02 741.83
  A 0.33 0.33 0.0 0 0 722.95 742.03
  L 722.97 791.26
  A 0.33 0.33 0.0 0 1 722.66 791.59
  L 720.55 791.74
  A 0.33 0.33 0.0 0 1 720.20 791.42
  L 720.14 654.99
  A 0.33 0.33 0.0 0 1 720.46 654.66
  L 722.64 654.59
  A 0.33 0.33 0.0 0 1 722.98 654.92
  L 722.94 735.96
  A 0.33 0.33 0.0 0 0 723.53 736.15
  Z"
/>
<path fill="#dbe8f3" d="
  M 559.72 691.61
  C 564.92 709.41 589.83 714.20 605.66 723.18
  C 613.82 727.80 622.76 732.95 627.79 741.21
  C 636.57 755.60 632.57 775.01 619.53 785.62
  C 602.45 799.54 570.73 793.25 560.01 773.86
  A 1.60 1.59 43.2 0 1 559.96 772.42
  Q 560.56 771.14 561.51 771.56
  Q 561.94 771.75 562.46 772.48
  Q 573.56 787.90 592.75 789.99
  C 612.30 792.12 627.14 780.06 629.11 760.60
  C 630.25 749.34 624.62 739.64 615.06 732.95
  C 603.14 724.62 586.96 718.01 576.56 712.69
  C 570.77 709.72 564.34 705.29 560.63 700.15
  C 552.33 688.61 554.13 671.28 565.59 662.08
  Q 572.65 656.40 582.74 654.36
  Q 608.67 649.10 624.47 670.40
  A 1.13 1.13 0.0 0 1 624.09 672.07
  L 623.63 672.31
  A 1.22 1.21 -35.4 0 1 622.18 672.07
  Q 619.59 669.34 617.74 667.25
  C 606.21 654.18 585.83 653.69 571.39 662.09
  C 560.78 668.26 556.23 679.68 559.72 691.61
  Z"
/>
<path fill="#dbe8f3" d="
  M 462.54 753.00
  L 407.02 753.00
  Q 406.51 753.00 406.37 753.49
  L 395.70 790.14
  Q 395.30 791.53 393.85 791.48
  L 393.55 791.47
  A 0.96 0.96 0.0 0 1 392.67 790.24
  Q 412.00 723.85 431.31 657.47
  C 432.33 653.95 435.96 652.76 437.17 656.77
  Q 457.22 723.35 477.30 790.16
  A 0.77 0.76 -8.9 0 1 476.58 791.14
  L 476.12 791.14
  Q 474.91 791.16 474.55 790.00
  L 463.42 753.65
  Q 463.22 753.00 462.54 753.00
  Z
  M 407.36 749.35
  A 0.35 0.35 0.0 0 0 407.69 749.80
  L 461.71 749.71
  A 0.35 0.35 0.0 0 0 462.05 749.26
  L 434.88 658.88
  A 0.35 0.35 0.0 0 0 434.21 658.88
  L 407.36 749.35
  Z"
/>
<path fill="#dbe8f3" d="
  M 279.47 791.39
  L 277.79 791.47
  A 0.74 0.74 0.0 0 1 277.02 790.73
  L 276.97 658.50
  A 0.74 0.74 0.0 0 0 276.23 657.76
  L 239.33 657.74
  A 0.74 0.74 0.0 0 1 238.60 656.92
  L 238.79 655.16
  A 0.74 0.74 0.0 0 1 239.52 654.50
  L 316.19 654.50
  A 0.74 0.74 0.0 0 1 316.92 655.13
  L 317.19 656.88
  A 0.74 0.74 0.0 0 1 316.46 657.73
  L 280.98 657.76
  A 0.74 0.74 0.0 0 0 280.24 658.50
  L 280.18 790.65
  A 0.74 0.74 0.0 0 1 279.47 791.39
  Z"
/>
<path fill="#111111" d="
  M 407.36 749.35
  L 434.21 658.88
  A 0.35 0.35 0.0 0 1 434.88 658.88
  L 462.05 749.26
  A 0.35 0.35 0.0 0 1 461.71 749.71
  L 407.69 749.80
  A 0.35 0.35 0.0 0 1 407.36 749.35
  Z
  M 424.84 737.90
  A 0.33 0.33 0.0 0 0 425.17 738.32
  L 445.01 738.18
  A 0.33 0.33 0.0 0 0 445.33 737.76
  L 435.15 701.67
  A 0.33 0.33 0.0 0 0 434.51 701.68
  L 424.84 737.90
  Z"
/>
<path fill="#dbe8f3" d="
  M 424.84 737.90
  L 434.51 701.68
  A 0.33 0.33 0.0 0 1 435.15 701.67
  L 445.33 737.76
  A 0.33 0.33 0.0 0 1 445.01 738.18
  L 425.17 738.32
  A 0.33 0.33 0.0 0 1 424.84 737.90
  Z"
/>
<path fill="#111111" d="
  M 503.01 864.27
  L 493.84 864.19
  A 0.60 0.60 0.0 0 1 493.24 863.59
  L 493.25 853.50
  Q 493.25 853.00 493.75 853.00
  L 514.72 853.00
  Q 515.15 853.00 515.16 853.43
  C 515.47 865.77 517.47 879.37 506.49 884.50
  Q 503.32 885.98 497.30 886.01
  C 493.07 886.03 488.48 886.43 484.68 885.10
  Q 474.53 881.53 474.35 869.99
  Q 474.13 856.50 474.38 843.00
  Q 474.65 828.34 489.04 826.09
  C 504.18 823.74 516.60 829.02 515.15 846.38
  Q 515.10 847.00 514.47 847.00
  L 504.27 846.99
  A 0.70 0.70 0.0 0 1 503.58 846.41
  C 502.86 842.19 502.51 838.83 498.04 837.98
  Q 493.41 837.09 489.74 838.66
  C 486.90 839.88 486.41 843.57 486.36 847.00
  Q 486.23 856.37 486.27 865.75
  C 486.30 873.08 491.03 875.66 497.75 874.02
  C 502.59 872.85 502.96 869.05 503.39 864.69
  Q 503.43 864.28 503.01 864.27
  Z
  M 508.48 859.92
  C 509.24 868.25 509.12 878.86 497.75 879.72
  C 491.32 880.21 483.70 879.90 481.49 872.23
  C 481.05 870.69 480.55 869.16 480.56 867.52
  Q 480.64 855.39 480.77 843.25
  C 480.93 829.47 502.90 828.69 507.83 839.42
  A 1.43 1.38 -51.8 0 1 507.92 840.30
  Q 507.67 841.43 507.80 841.71
  Q 509.27 844.91 509.24 841.39
  Q 509.21 838.69 507.36 836.32
  C 501.77 829.15 484.67 829.04 480.81 838.38
  Q 479.80 840.83 479.72 842.50
  Q 479.38 849.53 479.65 866.16
  Q 479.74 871.76 480.46 873.76
  C 482.86 880.44 492.36 881.57 498.46 880.64
  C 510.94 878.76 510.00 868.24 510.05 858.60
  Q 510.05 857.98 509.42 857.98
  L 496.79 858.08
  Q 496.46 858.08 496.49 858.41
  L 496.52 858.77
  A 0.47 0.47 0.0 0 0 496.98 859.21
  L 507.78 859.28
  Q 508.42 859.28 508.48 859.92
  Z"
/>
<path fill="#111111" d="
  M 235.70 854.30
  L 235.75 884.50
  A 1.26 1.25 -90.0 0 1 234.50 885.76
  L 225.24 885.74
  Q 224.25 885.74 224.25 884.74
  L 224.25 827.27
  A 0.73 0.73 0.0 0 1 224.98 826.54
  L 237.50 826.49
  Q 238.07 826.48 238.23 827.03
  L 248.81 862.31
  A 0.32 0.32 0.0 0 0 249.42 862.32
  L 260.76 827.78
  Q 261.18 826.52 262.51 826.51
  L 273.45 826.49
  A 1.29 1.29 0.0 0 1 274.74 827.78
  L 274.75 884.58
  A 1.17 1.17 0.0 0 1 273.58 885.75
  L 264.13 885.73
  A 0.89 0.89 0.0 0 1 263.24 884.84
  L 263.25 854.95
  Q 263.25 851.81 262.37 854.83
  L 253.54 885.02
  A 1.07 1.06 8.6 0 1 252.50 885.78
  L 246.26 885.71
  A 1.62 1.61 -7.2 0 1 244.73 884.53
  L 236.46 854.20
  Q 235.70 851.41 235.70 854.30
  Z
  M 230.48 832.60
  Q 231.55 832.28 232.69 832.39
  A 0.83 0.82 83.4 0 1 233.39 832.95
  L 248.25 877.45
  Q 249.06 879.89 249.88 877.46
  Q 257.15 855.92 264.32 834.27
  Q 265.02 832.17 267.38 832.35
  A 0.93 0.93 0.0 0 1 268.23 833.28
  L 268.26 880.20
  Q 268.26 880.46 268.52 880.46
  L 268.88 880.45
  A 0.62 0.62 0.0 0 0 269.49 879.83
  L 269.48 832.75
  A 1.06 1.04 -79.4 0 0 268.82 831.77
  C 264.03 829.86 263.62 832.99 262.34 836.78
  Q 256.29 854.80 250.06 873.76
  Q 249.17 876.45 248.28 873.77
  L 234.56 832.64
  Q 234.16 831.45 232.90 831.47
  L 230.22 831.51
  Q 228.97 831.53 228.97 832.78
  L 228.98 880.33
  Q 228.98 880.68 229.33 880.67
  L 229.65 880.65
  A 0.40 0.40 0.0 0 0 230.03 880.24
  L 229.84 833.46
  Q 229.84 832.79 230.48 832.60
  Z"
/>
<path fill="#111111" d="
  M 321.81 872.75
  L 309.66 872.76
  A 0.75 0.75 0.0 0 0 308.93 873.32
  L 305.75 885.22
  A 0.75 0.75 0.0 0 1 305.02 885.78
  L 294.65 885.70
  A 0.75 0.75 0.0 0 1 293.93 884.75
  L 309.49 827.06
  A 0.75 0.75 0.0 0 1 310.22 826.50
  L 321.20 826.52
  A 0.75 0.75 0.0 0 1 321.92 827.07
  L 337.44 884.81
  A 0.75 0.75 0.0 0 1 336.71 885.76
  L 326.42 885.73
  A 0.75 0.75 0.0 0 1 325.69 885.17
  L 322.54 873.31
  A 0.75 0.75 0.0 0 0 321.81 872.75
  Z
  M 330.91 879.80
  C 326.97 867.28 323.22 854.69 319.39 842.13
  C 318.63 839.64 317.70 835.44 316.26 832.20
  Q 316.11 831.85 315.89 831.68
  Q 315.04 831.05 314.37 832.18
  A 1.19 1.08 68.7 0 0 314.29 832.39
  Q 307.39 856.36 300.33 880.29
  Q 300.27 880.49 300.47 880.54
  L 300.72 880.60
  A 0.68 0.67 14.1 0 0 301.53 880.12
  L 305.08 867.69
  A 1.29 1.28 -81.8 0 1 306.31 866.76
  L 325.46 866.77
  A 0.40 0.39 80.6 0 1 325.83 867.04
  L 329.84 879.98
  A 0.41 0.41 0.0 0 0 330.35 880.25
  L 330.75 880.12
  A 0.26 0.24 73.0 0 0 330.91 879.80
  Z"
/>
<path fill="#111111" d="
  M 368.87 856.64
  Q 368.44 855.69 368.44 856.73
  L 368.52 885.00
  A 0.77 0.76 -0.0 0 1 367.75 885.76
  L 357.48 885.73
  A 0.75 0.75 0.0 0 1 356.73 884.98
  L 356.73 827.45
  A 0.92 0.92 0.0 0 1 357.65 826.53
  L 367.36 826.49
  A 1.73 1.72 78.3 0 1 368.94 827.53
  L 380.61 854.41
  Q 381.23 855.82 381.23 854.28
  L 381.26 827.25
  Q 381.26 826.51 382.00 826.51
  L 392.75 826.49
  Q 393.25 826.49 393.25 827.00
  L 393.25 884.74
  Q 393.25 885.73 392.26 885.74
  L 382.36 885.75
  Q 381.85 885.75 381.65 885.29
  L 368.87 856.64
  Z
  M 363.26 835.98
  Q 363.26 834.25 364.03 835.79
  L 385.69 879.01
  Q 387.86 883.33 387.85 878.49
  L 387.79 831.72
  A 0.34 0.33 -87.2 0 0 387.49 831.38
  L 387.18 831.35
  A 0.74 0.74 0.0 0 0 386.36 832.09
  L 386.38 875.50
  Q 386.38 876.85 385.42 875.76
  Q 385.27 875.58 384.90 874.86
  Q 373.90 853.19 362.99 831.62
  A 0.38 0.38 0.0 0 0 362.28 831.79
  L 362.20 880.21
  Q 362.20 880.69 362.68 880.70
  L 363.01 880.71
  Q 363.24 880.71 363.24 880.49
  L 363.26 835.98
  Z"
/>
<path fill="#111111" d="
  M 440.23 872.75
  L 428.33 872.76
  A 0.88 0.88 0.0 0 0 427.48 873.41
  L 424.36 885.10
  A 0.88 0.88 0.0 0 1 423.51 885.76
  L 413.40 885.73
  A 0.88 0.88 0.0 0 1 412.55 884.62
  L 428.04 827.18
  A 0.88 0.88 0.0 0 1 428.88 826.53
  L 439.66 826.48
  A 0.88 0.88 0.0 0 1 440.52 827.13
  L 455.99 884.62
  A 0.88 0.88 0.0 0 1 455.14 885.73
  L 445.18 885.75
  A 0.88 0.88 0.0 0 1 444.33 885.10
  L 441.08 873.40
  A 0.88 0.88 0.0 0 0 440.23 872.75
  Z
  M 423.75 867.73
  Q 424.03 866.77 425.03 866.77
  L 443.48 866.75
  A 1.21 1.20 81.5 0 1 444.63 867.61
  L 448.56 880.60
  Q 448.60 880.72 448.73 880.69
  L 448.98 880.62
  A 0.48 0.47 75.5 0 0 449.31 880.05
  Q 447.89 874.26 445.87 868.62
  C 445.46 867.48 445.51 866.19 445.10 864.99
  Q 441.93 855.58 439.21 846.03
  C 438.25 842.66 436.91 839.33 436.24 835.91
  Q 435.85 833.97 435.35 832.81
  Q 433.80 829.23 432.71 832.98
  L 419.13 879.64
  Q 419.08 879.82 419.23 879.93
  L 419.48 880.11
  Q 420.05 880.51 420.24 879.85
  L 423.75 867.73
  Z"
/>
<path fill="#111111" d="
  M 549.81 850.00
  L 564.45 850.02
  A 0.57 0.57 0.0 0 1 565.02 850.59
  L 565.02 860.68
  A 0.57 0.57 0.0 0 1 564.45 861.25
  L 549.83 861.25
  A 0.57 0.57 0.0 0 0 549.26 861.82
  L 549.25 873.93
  A 0.57 0.57 0.0 0 0 549.82 874.50
  L 568.92 874.50
  A 0.57 0.57 0.0 0 1 569.49 875.07
  L 569.49 885.18
  A 0.57 0.57 0.0 0 1 568.92 885.75
  L 537.80 885.76
  A 0.57 0.57 0.0 0 1 537.23 885.19
  L 537.25 827.05
  A 0.57 0.57 0.0 0 1 537.82 826.48
  L 568.92 826.51
  A 0.57 0.57 0.0 0 1 569.49 827.08
  L 569.47 837.17
  A 0.57 0.57 0.0 0 1 568.90 837.74
  L 549.82 837.76
  A 0.57 0.57 0.0 0 0 549.25 838.33
  L 549.24 849.43
  A 0.57 0.57 0.0 0 0 549.81 850.00
  Z
  M 543.99 879.49
  A 0.25 0.25 0.0 0 1 543.74 879.24
  L 543.81 856.25
  A 0.25 0.25 0.0 0 1 544.06 856.00
  L 560.29 855.97
  A 0.25 0.25 0.0 0 0 560.54 855.69
  L 560.45 854.96
  A 0.25 0.25 0.0 0 0 560.20 854.74
  L 544.10 854.73
  A 0.25 0.25 0.0 0 1 543.85 854.48
  L 543.77 832.73
  A 0.25 0.25 0.0 0 1 544.02 832.48
  L 564.43 832.50
  A 0.25 0.25 0.0 0 0 564.68 832.26
  L 564.69 831.72
  A 0.25 0.25 0.0 0 0 564.44 831.46
  L 542.62 831.52
  A 0.25 0.25 0.0 0 0 542.37 831.77
  L 542.39 880.53
  A 0.25 0.25 0.0 0 0 542.64 880.78
  L 563.97 880.76
  A 0.25 0.25 0.0 0 0 564.22 880.51
  L 564.23 879.76
  A 0.25 0.25 0.0 0 0 563.98 879.51
  L 543.99 879.49
  Z"
/>
<path fill="#111111" d="
  M 630.48 853.31
  Q 630.48 851.64 630.00 853.25
  L 620.64 884.89
  A 1.23 1.22 8.4 0 1 619.45 885.77
  L 612.80 885.71
  A 0.86 0.85 -7.2 0 1 611.99 885.09
  L 603.08 852.62
  Q 603.05 852.51 602.95 852.48
  Q 602.78 852.41 602.68 852.48
  Q 602.64 852.50 602.64 852.75
  L 602.78 884.98
  A 0.76 0.76 0.0 0 1 602.02 885.74
  L 592.25 885.75
  A 1.00 1.00 0.0 0 1 591.25 884.75
  L 591.26 827.25
  A 0.74 0.74 0.0 0 1 592.00 826.51
  L 604.54 826.50
  A 0.89 0.89 0.0 0 1 605.39 827.13
  L 615.94 862.47
  Q 616.23 863.43 616.54 862.48
  L 627.82 827.88
  A 2.00 2.00 0.0 0 1 629.72 826.50
  L 640.75 826.50
  A 1.01 1.00 89.7 0 1 641.75 827.50
  L 641.75 885.12
  Q 641.75 885.75 641.13 885.75
  L 630.89 885.74
  A 0.39 0.39 0.0 0 1 630.50 885.35
  L 630.48 853.31
  Z
  M 615.59 874.72
  L 601.42 832.25
  A 1.28 1.27 -10.1 0 0 600.17 831.38
  L 596.90 831.48
  A 1.12 1.12 0.0 0 0 595.81 832.60
  L 595.89 880.24
  Q 595.89 880.74 596.39 880.72
  L 596.78 880.70
  Q 597.24 880.69 597.24 880.23
  L 597.24 833.16
  Q 597.24 832.56 597.84 832.54
  L 599.66 832.49
  A 1.00 1.00 0.0 0 1 600.64 833.18
  L 615.25 877.04
  Q 616.18 879.82 617.11 877.04
  Q 624.09 856.09 631.47 833.96
  Q 631.98 832.43 634.26 832.32
  A 0.90 0.90 0.0 0 1 635.20 833.22
  L 635.20 879.97
  A 0.63 0.63 0.0 0 0 635.70 880.57
  L 636.08 880.65
  Q 636.49 880.73 636.49 880.31
  L 636.49 832.16
  A 0.65 0.65 0.0 0 0 635.84 831.51
  L 631.92 831.49
  Q 631.20 831.48 630.97 832.17
  L 616.78 874.72
  Q 616.18 876.50 615.59 874.72
  Z"
/>
<path fill="#111111" d="
  M 677.25 861.88
  L 677.26 873.85
  A 0.64 0.64 0.0 0 0 677.90 874.49
  L 696.85 874.50
  A 0.64 0.64 0.0 0 1 697.49 875.14
  L 697.49 885.11
  A 0.64 0.64 0.0 0 1 696.85 885.75
  L 665.88 885.75
  A 0.64 0.64 0.0 0 1 665.24 885.11
  L 665.24 827.14
  A 0.64 0.64 0.0 0 1 665.88 826.50
  L 696.86 826.50
  A 0.64 0.64 0.0 0 1 697.50 827.14
  L 697.48 837.11
  A 0.64 0.64 0.0 0 1 696.84 837.75
  L 677.89 837.76
  A 0.64 0.64 0.0 0 0 677.25 838.40
  L 677.24 849.36
  A 0.64 0.64 0.0 0 0 677.88 850.00
  L 692.39 850.01
  A 0.64 0.64 0.0 0 1 693.03 850.65
  L 692.95 860.61
  A 0.64 0.64 0.0 0 1 692.31 861.25
  L 677.89 861.24
  A 0.64 0.64 0.0 0 0 677.25 861.88
  Z
  M 671.70 856.27
  A 0.25 0.25 0.0 0 1 671.95 856.02
  L 688.26 855.96
  A 0.25 0.25 0.0 0 0 688.50 855.69
  L 688.43 854.97
  A 0.25 0.25 0.0 0 0 688.18 854.74
  L 671.92 854.73
  A 0.25 0.25 0.0 0 1 671.67 854.48
  L 671.76 832.73
  A 0.25 0.25 0.0 0 1 672.01 832.48
  L 692.34 832.49
  A 0.25 0.25 0.0 0 0 692.59 832.29
  L 692.68 831.78
  A 0.25 0.25 0.0 0 0 692.44 831.48
  L 670.70 831.50
  A 0.25 0.25 0.0 0 0 670.45 831.75
  L 670.46 880.53
  A 0.25 0.25 0.0 0 0 670.71 880.78
  L 691.94 880.76
  A 0.25 0.25 0.0 0 0 692.19 880.56
  L 692.33 879.80
  A 0.25 0.25 0.0 0 0 692.08 879.51
  L 671.99 879.48
  A 0.25 0.25 0.0 0 1 671.74 879.23
  L 671.70 856.27
  Z"
/>
<path fill="#111111" d="
  M 731.83 857.10
  Q 731.25 856.05 731.25 857.25
  L 731.25 884.79
  A 0.92 0.92 0.0 0 1 730.33 885.72
  L 720.01 885.75
  A 0.75 0.75 0.0 0 1 719.25 885.00
  L 719.25 827.25
  A 0.75 0.74 0.0 0 1 720.00 826.51
  L 730.54 826.49
  A 0.86 0.85 -11.4 0 1 731.33 827.01
  L 743.57 855.16
  Q 744.04 856.24 744.04 855.06
  L 743.99 827.01
  Q 743.98 826.50 744.49 826.50
  L 755.26 826.51
  A 0.50 0.49 90.0 0 1 755.75 827.01
  L 755.75 885.25
  Q 755.75 885.74 755.25 885.74
  L 745.27 885.75
  A 0.92 0.92 0.0 0 1 744.49 885.32
  Q 743.04 883.01 741.99 880.49
  Q 738.37 871.84 734.39 863.34
  C 733.54 861.52 732.90 859.01 731.83 857.10
  Z
  M 726.17 835.67
  Q 726.57 836.03 726.95 836.79
  Q 737.71 858.29 748.41 878.97
  Q 750.24 882.50 750.24 878.53
  L 750.23 832.01
  Q 750.23 831.52 749.74 831.52
  L 749.43 831.52
  A 0.27 0.26 0.0 0 0 749.16 831.78
  C 749.15 846.69 749.52 861.66 749.02 876.51
  Q 748.98 877.47 748.55 876.62
  L 726.08 832.50
  Q 724.94 830.26 724.73 832.76
  Q 724.31 837.69 724.41 843.10
  C 724.63 855.46 724.54 867.81 724.68 880.20
  Q 724.69 880.46 724.94 880.49
  L 725.49 880.55
  Q 725.62 880.57 725.62 880.44
  L 725.87 835.80
  A 0.18 0.18 0.0 0 1 726.17 835.67
  Z"
/>
<path fill="#111111" d="
  M 800.73 838.50
  L 800.75 885.00
  A 0.74 0.74 0.0 0 1 800.01 885.74
  L 789.47 885.73
  A 0.74 0.74 0.0 0 1 788.73 884.99
  L 788.71 838.50
  A 0.74 0.74 0.0 0 0 787.97 837.76
  L 775.99 837.74
  A 0.74 0.74 0.0 0 1 775.25 837.00
  L 775.25 827.25
  A 0.74 0.74 0.0 0 1 775.99 826.51
  L 813.50 826.50
  A 0.74 0.74 0.0 0 1 814.24 827.24
  L 814.26 837.00
  A 0.74 0.74 0.0 0 1 813.52 837.74
  L 801.47 837.76
  A 0.74 0.74 0.0 0 0 800.73 838.50
  Z
  M 793.63 832.51
  A 0.24 0.24 0.0 0 1 793.87 832.75
  L 793.93 879.75
  A 0.24 0.24 0.0 0 0 794.15 879.99
  L 794.95 880.07
  A 0.24 0.24 0.0 0 0 795.21 879.83
  L 795.19 832.74
  A 0.24 0.24 0.0 0 1 795.43 832.50
  L 808.27 832.50
  A 0.24 0.24 0.0 0 0 808.51 832.26
  L 808.51 831.71
  A 0.24 0.24 0.0 0 0 808.27 831.47
  L 780.57 831.54
  A 0.24 0.24 0.0 0 0 780.33 831.78
  L 780.33 832.25
  A 0.24 0.24 0.0 0 0 780.57 832.49
  L 793.63 832.51
  Z"
/>
<path fill="#dbe8f3" d="
  M 229.84 833.46
  L 230.03 880.24
  A 0.40 0.40 0.0 0 1 229.65 880.65
  L 229.33 880.67
  Q 228.98 880.68 228.98 880.33
  L 228.97 832.78
  Q 228.97 831.53 230.22 831.51
  L 232.90 831.47
  Q 234.16 831.45 234.56 832.64
  L 248.28 873.77
  Q 249.17 876.45 250.06 873.76
  Q 256.29 854.80 262.34 836.78
  C 263.62 832.99 264.03 829.86 268.82 831.77
  A 1.06 1.04 -79.4 0 1 269.48 832.75
  L 269.49 879.83
  A 0.62 0.62 0.0 0 1 268.88 880.45
  L 268.52 880.46
  Q 268.26 880.46 268.26 880.20
  L 268.23 833.28
  A 0.93 0.93 0.0 0 0 267.38 832.35
  Q 265.02 832.17 264.32 834.27
  Q 257.15 855.92 249.88 877.46
  Q 249.06 879.89 248.25 877.45
  L 233.39 832.95
  A 0.83 0.82 83.4 0 0 232.69 832.39
  Q 231.55 832.28 230.48 832.60
  Q 229.84 832.79 229.84 833.46
  Z"
/>
<path fill="#dbe8f3" d="
  M 363.26 835.98
  L 363.24 880.49
  Q 363.24 880.71 363.01 880.71
  L 362.68 880.70
  Q 362.20 880.69 362.20 880.21
  L 362.28 831.79
  A 0.38 0.38 0.0 0 1 362.99 831.62
  Q 373.90 853.19 384.90 874.86
  Q 385.27 875.58 385.42 875.76
  Q 386.38 876.85 386.38 875.50
  L 386.36 832.09
  A 0.74 0.74 0.0 0 1 387.18 831.35
  L 387.49 831.38
  A 0.34 0.33 -87.2 0 1 387.79 831.72
  L 387.85 878.49
  Q 387.86 883.33 385.69 879.01
  L 364.03 835.79
  Q 363.26 834.25 363.26 835.98
  Z"
/>
<path fill="#dbe8f3" d="
  M 423.75 867.73
  L 420.24 879.85
  Q 420.05 880.51 419.48 880.11
  L 419.23 879.93
  Q 419.08 879.82 419.13 879.64
  L 432.71 832.98
  Q 433.80 829.23 435.35 832.81
  Q 435.85 833.97 436.24 835.91
  C 436.91 839.33 438.25 842.66 439.21 846.03
  Q 441.93 855.58 445.10 864.99
  C 445.51 866.19 445.46 867.48 445.87 868.62
  Q 447.89 874.26 449.31 880.05
  A 0.48 0.47 75.5 0 1 448.98 880.62
  L 448.73 880.69
  Q 448.60 880.72 448.56 880.60
  L 444.63 867.61
  A 1.21 1.20 81.5 0 0 443.48 866.75
  L 425.03 866.77
  Q 424.03 866.77 423.75 867.73
  Z
  M 433.61 834.60
  Q 433.43 835.03 433.30 835.47
  Q 428.91 850.35 424.34 865.23
  A 0.42 0.42 0.0 0 0 424.74 865.77
  L 443.20 865.75
  Q 444.06 865.75 443.81 864.92
  L 434.86 835.30
  Q 434.74 834.90 434.45 834.59
  Q 434.06 834.19 434.21 833.60
  Q 434.26 833.36 434.05 833.24
  Q 433.87 833.15 433.74 833.23
  Q 433.61 833.32 433.61 833.55
  Q 433.62 833.75 433.67 833.94
  Q 433.75 834.28 433.61 834.60
  Z"
/>
<path fill="#dbe8f3" d="
  M 507.78 859.28
  L 496.98 859.21
  A 0.47 0.47 0.0 0 1 496.52 858.77
  L 496.49 858.41
  Q 496.46 858.08 496.79 858.08
  L 509.42 857.98
  Q 510.05 857.98 510.05 858.60
  C 510.00 868.24 510.94 878.76 498.46 880.64
  C 492.36 881.57 482.86 880.44 480.46 873.76
  Q 479.74 871.76 479.65 866.16
  Q 479.38 849.53 479.72 842.50
  Q 479.80 840.83 480.81 838.38
  C 484.67 829.04 501.77 829.15 507.36 836.32
  Q 509.21 838.69 509.24 841.39
  Q 509.27 844.91 507.80 841.71
  Q 507.67 841.43 507.92 840.30
  A 1.43 1.38 -51.8 0 0 507.83 839.42
  C 502.90 828.69 480.93 829.47 480.77 843.25
  Q 480.64 855.39 480.56 867.52
  C 480.55 869.16 481.05 870.69 481.49 872.23
  C 483.70 879.90 491.32 880.21 497.75 879.72
  C 509.12 878.86 509.24 868.25 508.48 859.92
  Q 508.42 859.28 507.78 859.28
  Z"
/>
<path fill="#dbe8f3" d="
  M 615.59 874.72
  Q 616.18 876.50 616.78 874.72
  L 630.97 832.17
  Q 631.20 831.48 631.92 831.49
  L 635.84 831.51
  A 0.65 0.65 0.0 0 1 636.49 832.16
  L 636.49 880.31
  Q 636.49 880.73 636.08 880.65
  L 635.70 880.57
  A 0.63 0.63 0.0 0 1 635.20 879.97
  L 635.20 833.22
  A 0.90 0.90 0.0 0 0 634.26 832.32
  Q 631.98 832.43 631.47 833.96
  Q 624.09 856.09 617.11 877.04
  Q 616.18 879.82 615.25 877.04
  L 600.64 833.18
  A 1.00 1.00 0.0 0 0 599.66 832.49
  L 597.84 832.54
  Q 597.24 832.56 597.24 833.16
  L 597.24 880.23
  Q 597.24 880.69 596.78 880.70
  L 596.39 880.72
  Q 595.89 880.74 595.89 880.24
  L 595.81 832.60
  A 1.12 1.12 0.0 0 1 596.90 831.48
  L 600.17 831.38
  A 1.28 1.27 -10.1 0 1 601.42 832.25
  L 615.59 874.72
  Z"
/>
<path fill="#dbe8f3" d="
  M 319.39 842.13
  C 323.22 854.69 326.97 867.28 330.91 879.80
  A 0.26 0.24 73.0 0 1 330.75 880.12
  L 330.35 880.25
  A 0.41 0.41 0.0 0 1 329.84 879.98
  L 325.83 867.04
  A 0.40 0.39 80.6 0 0 325.46 866.77
  L 306.31 866.76
  A 1.29 1.28 -81.8 0 0 305.08 867.69
  L 301.53 880.12
  A 0.68 0.67 14.1 0 1 300.72 880.60
  L 300.47 880.54
  Q 300.27 880.49 300.33 880.29
  Q 307.39 856.36 314.29 832.39
  A 1.19 1.08 68.7 0 1 314.37 832.18
  Q 315.04 831.05 315.89 831.68
  Q 316.11 831.85 316.26 832.20
  C 317.70 835.44 318.63 839.64 319.39 842.13
  Z
  M 305.82 865.38
  A 0.32 0.32 0.0 0 0 306.13 865.79
  L 325.04 865.73
  A 0.32 0.32 0.0 0 0 325.35 865.31
  L 315.78 833.67
  A 0.32 0.32 0.0 0 0 315.17 833.67
  L 305.82 865.38
  Z"
/>
<path fill="#dbe8f3" d="
  M 543.99 879.49
  L 563.98 879.51
  A 0.25 0.25 0.0 0 1 564.23 879.76
  L 564.22 880.51
  A 0.25 0.25 0.0 0 1 563.97 880.76
  L 542.64 880.78
  A 0.25 0.25 0.0 0 1 542.39 880.53
  L 542.37 831.77
  A 0.25 0.25 0.0 0 1 542.62 831.52
  L 564.44 831.46
  A 0.25 0.25 0.0 0 1 564.69 831.72
  L 564.68 832.26
  A 0.25 0.25 0.0 0 1 564.43 832.50
  L 544.02 832.48
  A 0.25 0.25 0.0 0 0 543.77 832.73
  L 543.85 854.48
  A 0.25 0.25 0.0 0 0 544.10 854.73
  L 560.20 854.74
  A 0.25 0.25 0.0 0 1 560.45 854.96
  L 560.54 855.69
  A 0.25 0.25 0.0 0 1 560.29 855.97
  L 544.06 856.00
  A 0.25 0.25 0.0 0 0 543.81 856.25
  L 543.74 879.24
  A 0.25 0.25 0.0 0 0 543.99 879.49
  Z"
/>
<path fill="#dbe8f3" d="
  M 671.70 856.27
  L 671.74 879.23
  A 0.25 0.25 0.0 0 0 671.99 879.48
  L 692.08 879.51
  A 0.25 0.25 0.0 0 1 692.33 879.80
  L 692.19 880.56
  A 0.25 0.25 0.0 0 1 691.94 880.76
  L 670.71 880.78
  A 0.25 0.25 0.0 0 1 670.46 880.53
  L 670.45 831.75
  A 0.25 0.25 0.0 0 1 670.70 831.50
  L 692.44 831.48
  A 0.25 0.25 0.0 0 1 692.68 831.78
  L 692.59 832.29
  A 0.25 0.25 0.0 0 1 692.34 832.49
  L 672.01 832.48
  A 0.25 0.25 0.0 0 0 671.76 832.73
  L 671.67 854.48
  A 0.25 0.25 0.0 0 0 671.92 854.73
  L 688.18 854.74
  A 0.25 0.25 0.0 0 1 688.43 854.97
  L 688.50 855.69
  A 0.25 0.25 0.0 0 1 688.26 855.96
  L 671.95 856.02
  A 0.25 0.25 0.0 0 0 671.70 856.27
  Z"
/>
<path fill="#dbe8f3" d="
  M 726.17 835.67
  A 0.18 0.18 0.0 0 0 725.87 835.80
  L 725.62 880.44
  Q 725.62 880.57 725.49 880.55
  L 724.94 880.49
  Q 724.69 880.46 724.68 880.20
  C 724.54 867.81 724.63 855.46 724.41 843.10
  Q 724.31 837.69 724.73 832.76
  Q 724.94 830.26 726.08 832.50
  L 748.55 876.62
  Q 748.98 877.47 749.02 876.51
  C 749.52 861.66 749.15 846.69 749.16 831.78
  A 0.27 0.26 -0.0 0 1 749.43 831.52
  L 749.74 831.52
  Q 750.23 831.52 750.23 832.01
  L 750.24 878.53
  Q 750.24 882.50 748.41 878.97
  Q 737.71 858.29 726.95 836.79
  Q 726.57 836.03 726.17 835.67
  Z"
/>
<path fill="#dbe8f3" d="
  M 793.63 832.51
  L 780.57 832.49
  A 0.24 0.24 0.0 0 1 780.33 832.25
  L 780.33 831.78
  A 0.24 0.24 0.0 0 1 780.57 831.54
  L 808.27 831.47
  A 0.24 0.24 0.0 0 1 808.51 831.71
  L 808.51 832.26
  A 0.24 0.24 0.0 0 1 808.27 832.50
  L 795.43 832.50
  A 0.24 0.24 0.0 0 0 795.19 832.74
  L 795.21 879.83
  A 0.24 0.24 0.0 0 1 794.95 880.07
  L 794.15 879.99
  A 0.24 0.24 0.0 0 1 793.93 879.75
  L 793.87 832.75
  A 0.24 0.24 0.0 0 0 793.63 832.51
  Z"
/>
<path fill="#111111" d="
  M 305.82 865.38
  L 315.17 833.67
  A 0.32 0.32 0.0 0 1 315.78 833.67
  L 325.35 865.31
  A 0.32 0.32 0.0 0 1 325.04 865.73
  L 306.13 865.79
  A 0.32 0.32 0.0 0 1 305.82 865.38
  Z
  M 312.13 861.13
  A 0.32 0.32 0.0 0 0 312.45 861.53
  L 319.11 861.46
  A 0.32 0.32 0.0 0 0 319.41 861.06
  L 315.96 849.00
  A 0.32 0.32 0.0 0 0 315.34 849.00
  L 312.13 861.13
  Z"
/>
<path fill="#111111" d="
  M 433.67 833.94
  Q 433.62 833.75 433.61 833.55
  Q 433.61 833.32 433.74 833.23
  Q 433.87 833.15 434.05 833.24
  Q 434.26 833.36 434.21 833.60
  Q 434.06 834.19 434.45 834.59
  Q 434.74 834.90 434.86 835.30
  L 443.81 864.92
  Q 444.06 865.75 443.20 865.75
  L 424.74 865.77
  A 0.42 0.42 0.0 0 1 424.34 865.23
  Q 428.91 850.35 433.30 835.47
  Q 433.43 835.03 433.61 834.60
  Q 433.75 834.28 433.67 833.94
  Z
  M 430.74 861.14
  A 0.31 0.31 0.0 0 0 431.04 861.53
  L 437.67 861.46
  A 0.31 0.31 0.0 0 0 437.97 861.06
  L 434.53 848.96
  A 0.31 0.31 0.0 0 0 433.93 848.96
  L 430.74 861.14
  Z"
/>
<path fill="#dbe8f3" d="
  M 312.13 861.13
  L 315.34 849.00
  A 0.32 0.32 0.0 0 1 315.96 849.00
  L 319.41 861.06
  A 0.32 0.32 0.0 0 1 319.11 861.46
  L 312.45 861.53
  A 0.32 0.32 0.0 0 1 312.13 861.13
  Z"
/>
<path fill="#dbe8f3" d="
  M 430.74 861.14
  L 433.93 848.96
  A 0.31 0.31 0.0 0 1 434.53 848.96
  L 437.97 861.06
  A 0.31 0.31 0.0 0 1 437.67 861.46
  L 431.04 861.53
  A 0.31 0.31 0.0 0 1 430.74 861.14
  Z"
/>
</svg>
